<svg width="337" height="316" viewBox="0 0 337 316" fill="none" xmlns="http://www.w3.org/2000/svg">
<path d="M302.533 230.978H280.262V231.146H302.533V230.978Z" fill="#EBEBEB"/>
<path d="M222.727 232.807H216.884V232.975H222.727V232.807Z" fill="#EBEBEB"/>
<path d="M279.589 224.738H266.685V224.906H279.589V224.738Z" fill="#EBEBEB"/>
<path d="M64.3193 225.868H35.2764V226.036H64.3193V225.868Z" fill="#EBEBEB"/>
<path d="M74.5676 225.868H70.311V226.036H74.5676V225.868Z" fill="#EBEBEB"/>
<path d="M151.401 228.705H88.4062V228.873H151.401V228.705Z" fill="#EBEBEB"/>
<path d="M160.311 190.168H30.4617C29.4434 190.168 28.4668 189.763 27.7467 189.043C27.0266 188.323 26.6221 187.346 26.6221 186.328V3.80604C26.6309 2.79354 27.0394 1.82552 27.7585 1.1127C28.4776 0.399878 29.4492 -3.88175e-05 30.4617 2.82598e-09H160.311C160.815 2.82599e-09 161.314 0.099315 161.78 0.292276C162.246 0.485237 162.669 0.768066 163.026 1.12461C163.383 1.48116 163.665 1.90444 163.858 2.37029C164.051 2.83614 164.151 3.33543 164.151 3.83966V186.328C164.151 186.832 164.051 187.331 163.858 187.797C163.665 188.263 163.383 188.686 163.026 189.043C162.669 189.399 162.246 189.682 161.78 189.875C161.314 190.068 160.815 190.168 160.311 190.168ZM30.4617 0.13449C29.4885 0.136267 28.5557 0.52366 27.8675 1.21182C27.1794 1.89999 26.792 2.83283 26.7902 3.80604V186.328C26.792 187.301 27.1794 188.234 27.8675 188.922C28.5557 189.61 29.4885 189.998 30.4617 189.999H160.311C161.284 189.998 162.217 189.61 162.905 188.922C163.593 188.234 163.981 187.301 163.982 186.328V3.80604C163.981 2.83283 163.593 1.89999 162.905 1.21182C162.217 0.52366 161.284 0.136267 160.311 0.13449H30.4617Z" fill="#EBEBEB"/>
<path d="M305.761 190.168H175.912C174.894 190.168 173.917 189.763 173.197 189.043C172.477 188.323 172.072 187.346 172.072 186.328V3.80604C172.081 2.79354 172.49 1.82552 173.209 1.1127C173.928 0.399878 174.899 -3.88175e-05 175.912 2.82598e-09H305.761C306.779 2.82599e-09 307.756 0.404535 308.476 1.12461C309.196 1.84469 309.601 2.82132 309.601 3.83966V186.328C309.601 187.346 309.196 188.323 308.476 189.043C307.756 189.763 306.779 190.168 305.761 190.168ZM175.912 0.13449C174.939 0.136267 174.006 0.52366 173.318 1.21182C172.63 1.89999 172.242 2.83283 172.24 3.80604V186.328C172.242 187.301 172.63 188.234 173.318 188.922C174.006 189.61 174.939 189.998 175.912 189.999H305.761C306.734 189.998 307.667 189.61 308.355 188.922C309.044 188.234 309.431 187.301 309.433 186.328V3.80604C309.431 2.83283 309.044 1.89999 308.355 1.21182C307.667 0.52366 306.734 0.136267 305.761 0.13449H175.912Z" fill="#EBEBEB"/>
<path d="M336.223 220.158H0V220.327H336.223V220.158Z" fill="#EBEBEB"/>
<path d="M284.209 26.7769H197.531V218.437H284.209V26.7769Z" fill="#E0E0E0"/>
<path d="M284.209 25.0957V220.105H300.18V25.0957H284.209Z" fill="#E6E6E6"/>
<path d="M182.333 25.0957V220.105H198.297V25.0957H182.333Z" fill="#E6E6E6"/>
<path d="M179.617 25.0957V220.105H286.125V25.0957H179.617ZM282.292 28.4579V63.4251H183.443V28.4579H282.292ZM183.443 140.084V105.117H282.292V140.084H183.443ZM282.292 143.446V178.413H183.443V143.446H282.292ZM183.443 101.754V66.7873H282.292V101.754H183.443ZM183.443 216.743V181.775H282.292V216.743H183.443Z" fill="#F5F5F5"/>
<path d="M247.762 63.7478H251.447V36.6146H247.762V63.7478Z" fill="#E6E6E6"/>
<path d="M251.447 63.7478H255.132V36.6146H251.447V63.7478Z" fill="#E0E0E0"/>
<path d="M240.393 63.7478H247.763V38.5177H240.393V63.7478Z" fill="#E6E6E6"/>
<path d="M231.953 63.7478H236.714V36.6146H231.953V63.7478Z" fill="#F0F0F0"/>
<path d="M236.714 63.7478H240.399V36.6146H236.714V63.7478Z" fill="#EBEBEB"/>
<path d="M204.007 63.7478H208.768V36.6146H204.007V63.7478Z" fill="#E6E6E6"/>
<path d="M208.767 63.7478H212.452V36.6146H208.767V63.7478Z" fill="#EBEBEB"/>
<path d="M219.816 63.7478H224.577V36.6146H219.816V63.7478Z" fill="#E6E6E6"/>
<path d="M224.577 63.7478H228.262V36.6146H224.577V63.7478Z" fill="#E0E0E0"/>
<path d="M196.636 63.7478H204.006V37.2535H196.636V63.7478Z" fill="#EBEBEB"/>
<path d="M192.958 63.7478H196.643V37.2535H192.958V63.7478Z" fill="#E0E0E0"/>
<path d="M214.913 63.7478H219.822V37.2535H214.913V63.7478Z" fill="#E0E0E0"/>
<path d="M212.452 63.7478H214.907V37.2535H212.452V63.7478Z" fill="#F0F0F0"/>
<path d="M224.577 63.7478H231.947V38.5177H224.577V63.7478Z" fill="#F5F5F5"/>
<path d="M266.187 63.7478H270.948V36.6146H266.187V63.7478Z" fill="#EBEBEB"/>
<path d="M270.948 63.7478H274.633V36.6146H270.948V63.7478Z" fill="#E6E6E6"/>
<path d="M258.811 63.7478H266.181V37.2535H258.811V63.7478Z" fill="#E0E0E0"/>
<path d="M255.126 63.7478H258.811V37.2535H255.126V63.7478Z" fill="#EBEBEB"/>
<path d="M277.088 63.7478H281.997V37.2535H277.088V63.7478Z" fill="#EBEBEB"/>
<path d="M274.633 63.7478H277.088V37.2535H274.633V63.7478Z" fill="#FAFAFA"/>
<path d="M227.185 74.6079H223.5V101.741H227.185V74.6079Z" fill="#E6E6E6"/>
<path d="M223.507 74.6079H219.822V101.741H223.507V74.6079Z" fill="#E0E0E0"/>
<path d="M234.556 76.5176H227.186V101.748H234.556V76.5176Z" fill="#E6E6E6"/>
<path d="M243.002 74.6079H238.241V101.741H243.002V74.6079Z" fill="#F0F0F0"/>
<path d="M238.241 74.6079H234.556V101.741H238.241V74.6079Z" fill="#EBEBEB"/>
<path d="M270.942 74.6079H266.181V101.741H270.942V74.6079Z" fill="#E6E6E6"/>
<path d="M266.181 74.6079H262.496V101.741H266.181V74.6079Z" fill="#EBEBEB"/>
<path d="M255.133 74.6079H250.372V101.741H255.133V74.6079Z" fill="#E6E6E6"/>
<path d="M250.372 74.6079H246.687V101.741H250.372V74.6079Z" fill="#E0E0E0"/>
<path d="M278.312 75.2534H270.942V101.748H278.312V75.2534Z" fill="#EBEBEB"/>
<path d="M281.997 75.2534H278.312V101.748H281.997V75.2534Z" fill="#E0E0E0"/>
<path d="M260.041 75.2534H255.132V101.748H260.041V75.2534Z" fill="#E0E0E0"/>
<path d="M262.496 75.2534H260.042V101.748H262.496V75.2534Z" fill="#F0F0F0"/>
<path d="M250.371 76.5176H243.001V101.748H250.371V76.5176Z" fill="#F5F5F5"/>
<path d="M208.767 74.6079H204.006V101.741H208.767V74.6079Z" fill="#EBEBEB"/>
<path d="M204.006 74.6079H200.321V101.741H204.006V74.6079Z" fill="#E6E6E6"/>
<path d="M216.138 75.2534H208.768V101.748H216.138V75.2534Z" fill="#E0E0E0"/>
<path d="M219.822 75.2534H216.137V101.748H219.822V75.2534Z" fill="#EBEBEB"/>
<path d="M197.861 75.2534H192.952V101.748H197.861V75.2534Z" fill="#EBEBEB"/>
<path d="M200.322 75.2534H197.867V101.748H200.322V75.2534Z" fill="#FAFAFA"/>
<path d="M227.185 113.28H223.5V140.413H227.185V113.28Z" fill="#E6E6E6"/>
<path d="M223.507 113.28H219.822V140.413H223.507V113.28Z" fill="#E0E0E0"/>
<path d="M234.556 115.183H227.186V140.413H234.556V115.183Z" fill="#E6E6E6"/>
<path d="M243.002 113.28H238.241V140.413H243.002V113.28Z" fill="#F0F0F0"/>
<path d="M238.241 113.28H234.556V140.413H238.241V113.28Z" fill="#EBEBEB"/>
<path d="M270.942 113.28H266.181V140.413H270.942V113.28Z" fill="#E6E6E6"/>
<path d="M266.181 113.28H262.496V140.413H266.181V113.28Z" fill="#EBEBEB"/>
<path d="M255.133 113.28H250.372V140.413H255.133V113.28Z" fill="#E6E6E6"/>
<path d="M250.372 113.28H246.687V140.413H250.372V113.28Z" fill="#E0E0E0"/>
<path d="M278.312 113.919H270.942V140.413H278.312V113.919Z" fill="#EBEBEB"/>
<path d="M281.997 113.919H278.312V140.413H281.997V113.919Z" fill="#E0E0E0"/>
<path d="M260.041 113.919H255.132V140.413H260.041V113.919Z" fill="#E0E0E0"/>
<path d="M262.496 113.919H260.042V140.413H262.496V113.919Z" fill="#F0F0F0"/>
<path d="M250.371 115.183H243.001V140.413H250.371V115.183Z" fill="#F5F5F5"/>
<path d="M208.767 113.28H204.006V140.413H208.767V113.28Z" fill="#EBEBEB"/>
<path d="M204.006 113.28H200.321V140.413H204.006V113.28Z" fill="#E6E6E6"/>
<path d="M216.138 113.919H208.768V140.413H216.138V113.919Z" fill="#E0E0E0"/>
<path d="M219.822 113.919H216.137V140.413H219.822V113.919Z" fill="#EBEBEB"/>
<path d="M197.861 113.919H192.952V140.413H197.861V113.919Z" fill="#EBEBEB"/>
<path d="M200.322 113.919H197.867V140.413H200.322V113.919Z" fill="#FAFAFA"/>
<path d="M247.762 179.085H251.447V151.952H247.762V179.085Z" fill="#E6E6E6"/>
<path d="M251.447 179.085H255.132V151.952H251.447V179.085Z" fill="#E0E0E0"/>
<path d="M240.393 177.176H247.763V151.946H240.393V177.176Z" fill="#E6E6E6"/>
<path d="M231.953 179.085H236.714V151.952H231.953V179.085Z" fill="#F0F0F0"/>
<path d="M236.714 179.085H240.399V151.952H236.714V179.085Z" fill="#EBEBEB"/>
<path d="M204.007 179.085H208.768V151.952H204.007V179.085Z" fill="#E6E6E6"/>
<path d="M208.767 179.085H212.452V151.952H208.767V179.085Z" fill="#EBEBEB"/>
<path d="M219.816 179.085H224.577V151.952H219.816V179.085Z" fill="#E6E6E6"/>
<path d="M224.577 179.085H228.262V151.952H224.577V179.085Z" fill="#E0E0E0"/>
<path d="M196.636 178.44H204.006V151.946H196.636V178.44Z" fill="#EBEBEB"/>
<path d="M192.958 178.44H196.643V151.946H192.958V178.44Z" fill="#E0E0E0"/>
<path d="M214.913 178.44H219.822V151.946H214.913V178.44Z" fill="#E0E0E0"/>
<path d="M212.452 178.44H214.907V151.946H212.452V178.44Z" fill="#F0F0F0"/>
<path d="M224.577 177.176H231.947V151.946H224.577V177.176Z" fill="#F5F5F5"/>
<path d="M266.187 179.085H270.948V151.952H266.187V179.085Z" fill="#EBEBEB"/>
<path d="M270.948 179.085H274.633V151.952H270.948V179.085Z" fill="#E6E6E6"/>
<path d="M258.811 178.44H266.181V151.946H258.811V178.44Z" fill="#E0E0E0"/>
<path d="M255.126 178.44H258.811V151.946H255.126V178.44Z" fill="#EBEBEB"/>
<path d="M277.088 178.44H281.997V151.946H277.088V178.44Z" fill="#EBEBEB"/>
<path d="M274.633 178.44H277.088V151.946H274.633V178.44Z" fill="#FAFAFA"/>
<path d="M227.185 190.618H223.5V217.751H227.185V190.618Z" fill="#E6E6E6"/>
<path d="M223.507 190.618H219.822V217.751H223.507V190.618Z" fill="#E0E0E0"/>
<path d="M234.556 190.618H227.186V215.848H234.556V190.618Z" fill="#E6E6E6"/>
<path d="M243.002 190.618H238.241V217.751H243.002V190.618Z" fill="#F0F0F0"/>
<path d="M238.241 190.618H234.556V217.751H238.241V190.618Z" fill="#EBEBEB"/>
<path d="M270.942 190.618H266.181V217.751H270.942V190.618Z" fill="#E6E6E6"/>
<path d="M266.181 190.618H262.496V217.751H266.181V190.618Z" fill="#EBEBEB"/>
<path d="M255.133 190.618H250.372V217.751H255.133V190.618Z" fill="#E6E6E6"/>
<path d="M250.372 190.618H246.687V217.751H250.372V190.618Z" fill="#E0E0E0"/>
<path d="M278.312 190.618H270.942V217.113H278.312V190.618Z" fill="#EBEBEB"/>
<path d="M281.997 190.618H278.312V217.113H281.997V190.618Z" fill="#E0E0E0"/>
<path d="M260.041 190.618H255.132V217.113H260.041V190.618Z" fill="#E0E0E0"/>
<path d="M262.496 190.618H260.042V217.113H262.496V190.618Z" fill="#F0F0F0"/>
<path d="M250.371 190.618H243.001V215.848H250.371V190.618Z" fill="#F5F5F5"/>
<path d="M208.767 190.618H204.006V217.751H208.767V190.618Z" fill="#EBEBEB"/>
<path d="M204.006 190.618H200.321V217.751H204.006V190.618Z" fill="#E6E6E6"/>
<path d="M216.138 190.618H208.768V217.113H216.138V190.618Z" fill="#E0E0E0"/>
<path d="M219.822 190.618H216.137V217.113H219.822V190.618Z" fill="#EBEBEB"/>
<path d="M197.861 190.618H192.952V217.113H197.861V190.618Z" fill="#EBEBEB"/>
<path d="M200.322 190.618H197.867V217.113H200.322V190.618Z" fill="#FAFAFA"/>
<path d="M57.4403 40.0845C57.4403 40.0845 60.6344 53.9637 59.3904 67.5539C58.6697 74.676 57.5041 81.746 55.9004 88.7224C55.9004 88.7224 70.4118 87.0481 87.5053 86.4697C101.529 86.016 115.562 87.0574 129.365 89.5765L141.005 90.7398C141.005 90.7398 133.823 59.6728 139.761 40.7771L57.4403 40.0845Z" fill="#FAFAFA"/>
<path d="M89.6974 48.2615H65.4087V48.786H89.6974V48.2615Z" fill="#E0E0E0"/>
<path d="M77.8155 48.7659H77.291V83.9549H77.8155V48.7659Z" fill="#E0E0E0"/>
<path d="M88.9713 48.7659H88.4468V83.9549H88.9713V48.7659Z" fill="#E0E0E0"/>
<path d="M67.9034 48.7659H67.3789V83.9549H67.9034V48.7659Z" fill="#E0E0E0"/>
<path d="M66.1685 48.7659H65.644V83.9549H66.1685V48.7659Z" fill="#E0E0E0"/>
<path d="M88.4601 50.6218H65.9062V51.1463H88.4601V50.6218Z" fill="#E0E0E0"/>
<path d="M111.982 48.2615H87.7002V48.786H111.982V48.2615Z" fill="#E0E0E0"/>
<path d="M100.107 48.7659H99.5825V83.9549H100.107V48.7659Z" fill="#E0E0E0"/>
<path d="M88.9576 48.7659H88.4331V83.9549H88.9576V48.7659Z" fill="#E0E0E0"/>
<path d="M110.019 48.7659H109.494V83.9549H110.019V48.7659Z" fill="#E0E0E0"/>
<path d="M111.491 50.6218H88.9375V51.1463H111.491V50.6218Z" fill="#E0E0E0"/>
<path d="M131.087 48.2615H108.768V48.786H131.087V48.2615Z" fill="#E0E0E0"/>
<path d="M121.175 48.7659H120.65V83.9549H121.175V48.7659Z" fill="#E0E0E0"/>
<path d="M110.025 48.7659H109.501V83.9549H110.025V48.7659Z" fill="#E0E0E0"/>
<path d="M131.087 48.7659H130.562V83.9549H131.087V48.7659Z" fill="#E0E0E0"/>
<path d="M130.824 50.6218H110.005V51.1463H130.824V50.6218Z" fill="#E0E0E0"/>
<path d="M142.814 45.2691L52.9819 44.98V37.4822L142.471 36.0566L142.814 45.2691Z" fill="#EBEBEB"/>
<path d="M72.7923 37.3409L72.3081 36.9038L97.5046 25.8354C97.7157 25.605 97.9723 25.4211 98.2583 25.2953C98.5442 25.1695 98.8532 25.1045 99.1656 25.1045C99.478 25.1045 99.787 25.1695 100.073 25.2953C100.359 25.4211 100.615 25.605 100.827 25.8354L126.104 35.8683L125.633 36.3121L100.329 26.2254C100.176 26.0639 99.991 25.9353 99.7864 25.8474C99.5817 25.7596 99.3614 25.7143 99.1387 25.7143C98.9166 25.7175 98.6975 25.7663 98.4951 25.8577C98.2927 25.9491 98.1112 26.0811 97.9619 26.2456L72.7923 37.3409Z" fill="#F5F5F5"/>
<path d="M99.9859 26.2255C99.9872 26.383 99.9416 26.5373 99.8549 26.6689C99.7683 26.8004 99.6444 26.9031 99.4992 26.964C99.3539 27.0249 99.1938 27.0412 99.0392 27.0108C98.8847 26.9804 98.7427 26.9047 98.6313 26.7933C98.52 26.6819 98.4442 26.5399 98.4138 26.3854C98.3834 26.2308 98.3997 26.0707 98.4606 25.9255C98.5215 25.7802 98.6242 25.6563 98.7558 25.5697C98.8873 25.483 99.0416 25.4374 99.1991 25.4387C99.4078 25.4387 99.6079 25.5216 99.7554 25.6692C99.903 25.8167 99.9859 26.0168 99.9859 26.2255Z" fill="#E0E0E0"/>
<g clip-path="url(#clip0_281_1237)">
<path d="M179.215 261.157L174.102 278.333L174.699 281.715L189.177 278.797L195.552 262.152L179.215 261.157Z" fill="#FFCACD"/>
<path d="M157.765 265.8L159.026 283.373L157.167 291.463L144.018 283.439L141.029 266.065L157.765 265.8Z" fill="#FFCACD"/>
<path d="M131.998 189.604C131.998 189.604 127.283 190.4 128.279 198.822C129.275 207.31 133.791 257.643 139.104 268.651C139.104 268.651 145.213 273.956 159.624 268.651C159.624 268.651 157.433 215.732 154.71 199.418C154.71 199.418 159.027 200.811 157.831 195.705L188.114 195.174L175.563 261.622C175.563 261.622 181.673 268.518 195.087 265.335L218.862 186.686L133.924 186.885L131.998 189.604Z" fill="#09213A"/>
<path d="M201.595 293.254C199.869 289.275 197.544 285.628 195.087 282.113C194.157 280.72 193.161 279.394 192.232 278.068C191.501 277.007 190.571 276.078 191.235 274.686C191.567 273.956 192.099 273.426 192.431 272.696C192.829 272.033 192.962 271.105 192.497 270.441C192.232 270.044 191.833 269.845 191.368 269.712C189.509 268.983 187.516 268.916 185.591 268.916C184.661 268.916 183.731 268.916 182.801 269.115C181.872 269.314 181.008 269.845 180.411 270.574C179.68 271.569 179.547 272.895 179.215 274.089C178.949 274.951 178.551 275.946 177.821 276.476C177.156 276.94 175.961 276.874 175.629 276.012C175.43 275.415 175.231 275.017 174.766 274.686C173.504 277.869 173.504 281.781 175.231 284.964L183.133 301.676C183.133 301.676 187.384 309.169 193.427 307.511C197.943 306.318 203.521 303.201 202.857 297.365C202.724 296.039 202.193 294.646 201.595 293.254Z" fill="#0F376A"/>
<path d="M202.26 294.779C201.861 294.381 201.33 294.315 200.334 294.315C197.544 294.315 194.822 295.376 192.364 296.636C190.505 297.564 187.782 299.819 185.591 299.222C182.403 298.36 180.411 292.325 179.082 289.474C177.289 285.76 175.629 281.98 173.902 278.267C173.637 280.588 174.035 283.041 175.164 285.097C176.559 288.081 177.953 290.999 179.414 293.983C182.004 299.487 184.661 305.456 190.106 308.705C195.818 312.087 203.056 309.302 203.986 302.538C204.385 300.349 203.92 296.437 202.26 294.779Z" fill="#F39C12"/>
<path d="M185.856 281.715C185.657 281.715 185.458 281.649 185.325 281.516C185.059 281.251 184.993 280.787 185.325 280.455C187.317 278.333 190.372 277.736 192.962 278.863C193.361 279.062 193.493 279.46 193.361 279.858C193.161 280.256 192.763 280.389 192.364 280.256C190.372 279.328 187.981 279.858 186.454 281.516C186.255 281.649 186.055 281.715 185.856 281.715Z" fill="#6DDB9C"/>
<path d="M187.184 286.357C186.985 286.357 186.852 286.291 186.719 286.158C186.387 285.893 186.387 285.429 186.653 285.097C188.579 282.909 191.567 282.113 194.224 283.107C194.622 283.24 194.821 283.704 194.622 284.102C194.489 284.5 194.025 284.699 193.626 284.5C191.567 283.704 189.243 284.301 187.716 286.025C187.583 286.291 187.384 286.357 187.184 286.357Z" fill="#6DDB9C"/>
<path d="M189.044 290.27C188.845 290.27 188.579 290.203 188.446 290.004C188.18 289.673 188.247 289.209 188.579 288.943C190.704 287.285 193.294 286.689 195.884 287.352C196.283 287.484 196.548 287.882 196.415 288.28C196.283 288.678 195.884 288.943 195.486 288.811C193.427 288.28 191.235 288.744 189.509 290.137C189.376 290.203 189.243 290.27 189.044 290.27Z" fill="#6DDB9C"/>
<path d="M131.068 298.36C133.127 294.514 135.717 291.066 138.373 287.75C139.436 286.49 140.498 285.164 141.561 283.904C142.424 282.909 143.354 282.047 142.823 280.588C142.557 279.858 142.092 279.262 141.76 278.532C141.428 277.803 141.362 276.874 141.826 276.277C142.092 275.946 142.557 275.747 142.955 275.614C144.815 275.084 146.807 275.15 148.8 275.283C149.729 275.349 150.659 275.415 151.589 275.747C152.452 276.012 153.315 276.609 153.847 277.405C154.511 278.466 154.511 279.792 154.776 281.052C154.976 281.98 155.308 282.975 156.038 283.572C156.636 284.103 157.831 284.169 158.23 283.307C158.495 282.71 158.695 282.378 159.226 282.113C160.222 285.362 159.956 289.275 157.964 292.326L148.8 308.374C148.8 308.374 143.952 315.536 138.107 313.414C133.658 311.822 128.412 308.307 129.541 302.604C129.673 301.013 130.338 299.62 131.068 298.36Z" fill="#0F376A"/>
<path d="M130.271 299.687C130.736 299.289 131.267 299.289 132.197 299.355C134.92 299.62 137.576 300.88 139.901 302.339C141.694 303.467 144.151 305.92 146.409 305.456C149.663 304.859 152.12 299.023 153.714 296.305C155.839 292.79 157.765 289.143 159.824 285.562C159.89 287.883 159.292 290.27 157.964 292.259C156.304 295.111 154.644 297.962 153.05 300.748C149.995 305.986 146.874 311.756 141.162 314.541C135.185 317.459 128.212 314.077 127.814 307.246C127.747 305.124 128.544 301.212 130.271 299.687Z" fill="#F39C12"/>
<path d="M147.737 288.081C147.537 288.081 147.338 288.015 147.139 287.816C145.744 286.026 143.354 285.363 141.361 286.158C140.963 286.291 140.564 286.092 140.432 285.694C140.299 285.296 140.498 284.898 140.896 284.766C143.553 283.771 146.541 284.633 148.401 286.888C148.666 287.219 148.6 287.684 148.268 287.949C148.069 288.015 147.87 288.081 147.737 288.081Z" fill="#6DDB9C"/>
<path d="M146.01 292.525C145.811 292.525 145.546 292.392 145.413 292.259C144.018 290.403 141.76 289.607 139.635 290.27C139.237 290.403 138.838 290.137 138.705 289.806C138.573 289.408 138.838 289.01 139.17 288.877C141.893 288.015 144.815 289.076 146.608 291.397C146.874 291.729 146.807 292.193 146.475 292.458C146.276 292.525 146.143 292.525 146.01 292.525Z" fill="#6DDB9C"/>
<path d="M143.819 296.371C143.619 296.371 143.487 296.305 143.287 296.172C141.694 294.647 139.568 293.984 137.443 294.381C137.045 294.448 136.646 294.182 136.58 293.785C136.514 293.387 136.779 292.989 137.178 292.923C139.768 292.458 142.358 293.254 144.284 295.111C144.616 295.376 144.616 295.84 144.35 296.172C144.217 296.238 144.018 296.371 143.819 296.371Z" fill="#6DDB9C"/>
<path d="M179.813 240.733C179.813 240.733 179.747 240.733 179.813 240.733C179.614 240.733 179.547 240.6 179.547 240.467L188.446 192.19C188.446 192.058 188.579 191.991 188.712 191.991C188.845 191.991 188.911 192.124 188.911 192.256L180.079 240.534C180.012 240.666 179.946 240.733 179.813 240.733Z" fill="#416897"/>
<path d="M187.517 266.595C182.27 266.595 175.961 262.152 175.696 261.953C175.629 261.887 175.563 261.821 175.563 261.688L177.688 249.287C177.688 249.154 177.821 249.088 177.954 249.088C178.087 249.088 178.153 249.221 178.153 249.353L176.094 261.622C177.024 262.285 182.802 266.131 187.517 266.131C187.716 266.131 187.915 266.131 188.048 266.131C188.181 266.131 188.314 266.197 188.314 266.33C188.314 266.463 188.247 266.595 188.115 266.595C187.849 266.595 187.716 266.595 187.517 266.595Z" fill="#416897"/>
<path d="M155.773 209.631C155.64 209.631 155.507 209.565 155.507 209.432C155.374 208.238 155.308 206.912 155.241 205.52C155.042 202.071 154.909 198.49 153.648 195.838C153.581 195.705 153.648 195.572 153.78 195.506C153.913 195.44 154.046 195.506 154.113 195.639C155.374 198.424 155.574 202.005 155.706 205.52C155.773 206.912 155.839 208.238 155.972 209.432C156.038 209.432 155.906 209.565 155.773 209.631Z" fill="#416897"/>
<path d="M150.659 270.906C148.932 270.906 147.206 270.839 145.545 270.574C145.147 270.508 144.616 270.442 144.151 270.442C142.623 270.309 140.963 270.11 139.768 269.381C138.373 268.518 138.107 267.192 137.842 265.8C137.775 265.601 137.775 265.335 137.709 265.136L134.787 252.205C134.721 252.006 134.654 251.608 134.92 251.277C134.986 251.144 135.185 251.144 135.252 251.21C135.385 251.277 135.385 251.476 135.318 251.542C135.252 251.675 135.252 251.873 135.318 252.072L138.24 265.004C138.307 265.269 138.373 265.468 138.373 265.667C138.639 267.06 138.904 268.187 140.1 268.983C141.229 269.712 142.823 269.845 144.284 269.977C144.815 270.044 145.28 270.044 145.678 270.11C148.335 270.508 151.124 270.442 153.913 270.375C154.046 270.375 154.179 270.508 154.179 270.641C154.179 270.773 154.046 270.906 153.913 270.906C152.784 270.906 151.722 270.906 150.659 270.906Z" fill="#416897"/>
<path d="M155.573 270.375C155.44 270.375 155.374 270.309 155.308 270.176C155.308 270.044 155.374 269.911 155.507 269.911C156.901 269.58 158.163 269.049 159.425 268.386C159.558 268.32 159.691 268.386 159.757 268.452C159.824 268.585 159.757 268.717 159.691 268.784C158.429 269.513 157.034 270.044 155.573 270.375C155.64 270.375 155.573 270.375 155.573 270.375Z" fill="#416897"/>
<path d="M156.105 199.485C155.839 199.485 155.64 199.418 155.374 199.286C155.241 199.219 155.241 199.087 155.308 198.954C155.374 198.822 155.507 198.822 155.64 198.888C155.972 199.087 156.304 199.021 156.57 198.954C157.034 198.755 157.433 198.357 157.566 197.959C157.831 197.164 157.699 196.235 157.433 195.241C157.366 195.108 157.499 194.975 157.632 194.909C157.765 194.843 157.898 194.975 157.964 195.108C158.23 196.169 158.429 197.164 158.097 198.092C157.898 198.689 157.366 199.219 156.769 199.418C156.503 199.418 156.238 199.485 156.105 199.485Z" fill="#416897"/>
<path d="M255.322 184.166L282.218 313.613H275.51L246.888 184.63L255.322 184.166Z" fill="#CC5C50"/>
<path d="M102.113 184.166L75.1509 313.613H81.8583L110.481 184.63L102.113 184.166Z" fill="#CC5C50"/>
<path d="M269.799 252.868C269.666 252.868 269.599 252.802 269.533 252.669L255.056 185.36C255.056 185.227 255.122 185.095 255.255 185.095C255.388 185.095 255.521 185.161 255.521 185.294L269.998 252.669C270.064 252.736 269.998 252.868 269.799 252.868C269.865 252.868 269.799 252.868 269.799 252.868Z" fill="#F39C12"/>
<path d="M282.417 313.944H252.466C252.333 313.944 252.2 313.812 252.2 313.679C252.2 313.546 252.333 313.414 252.466 313.414H282.151L273.916 274.62C273.916 274.487 273.983 274.354 274.116 274.354C274.248 274.354 274.381 274.421 274.381 274.553L282.682 313.679C282.682 313.745 282.682 313.812 282.616 313.878C282.616 313.878 282.483 313.944 282.417 313.944Z" fill="#8C3C31"/>
<path d="M271.326 261.688C271.193 261.688 271.127 261.622 271.061 261.489L270.264 256.98C270.264 256.847 270.33 256.715 270.463 256.715C270.596 256.715 270.729 256.781 270.729 256.914L271.525 261.423C271.592 261.489 271.525 261.622 271.326 261.688Z" fill="#8C3C31"/>
<path d="M81.5262 314.077H51.5088C51.376 314.077 51.2432 313.944 51.2432 313.812C51.2432 313.679 51.376 313.546 51.5088 313.546H81.3934L88.8977 280.588C88.8977 280.455 89.0969 280.389 89.1634 280.389C89.2962 280.389 89.3626 280.522 89.3626 280.654L81.7918 313.812C81.7918 314.011 81.659 314.077 81.5262 314.077Z" fill="#8C3C31"/>
<path d="M70.5019 316H55.2276C55.0947 316 54.9619 315.867 54.9619 315.735C54.9619 315.602 55.0947 315.469 55.2276 315.469H70.5019C70.6347 315.469 70.7675 315.602 70.7675 315.735C70.7011 315.934 70.6347 316 70.5019 316Z" fill="#8C3C31"/>
<path d="M90.3589 276.543C90.2925 276.543 90.2925 276.543 90.3589 276.543C90.1597 276.476 90.0933 276.344 90.0933 276.211L110.348 186.023C110.348 185.89 110.481 185.824 110.614 185.824C110.747 185.824 110.813 185.957 110.813 186.089L90.5581 276.344C90.5581 276.476 90.4253 276.543 90.3589 276.543Z" fill="#8C3C31"/>
<path d="M283.546 173.954C282.882 183.835 236.594 192.986 179.68 192.986C122.767 192.986 78.4714 183.768 76.4127 174.285C73.1586 159.298 122.302 153.661 179.216 153.661C236.129 153.661 284.542 158.967 283.546 173.954Z" fill="#CC5C50"/>
<path d="M179.88 189.14C236.803 189.14 282.948 181.123 282.948 171.235C282.948 161.346 236.803 153.33 179.88 153.33C122.956 153.33 76.811 161.346 76.811 171.235C76.811 181.123 122.956 189.14 179.88 189.14Z" fill="#E8807F"/>
<path d="M179.88 189.14C236.803 189.14 282.948 181.123 282.948 171.235C282.948 161.346 236.803 153.33 179.88 153.33C122.956 153.33 76.811 161.346 76.811 171.235C76.811 181.123 122.956 189.14 179.88 189.14Z" fill="#F39C12"/>
<path d="M203.986 155.187C204.65 155.187 227.429 156.579 230.351 156.977C231.413 153.33 230.417 147.428 227.296 137.149C225.901 132.507 215.143 105.782 212.686 100.543C210.826 96.4982 207.705 90.6625 202.99 89.3362C198.076 87.9436 191.302 88.2751 186.188 88.2751C186.055 86.2857 184.528 84.5615 182.668 83.7657C180.809 82.97 178.75 82.8373 176.758 82.6384C174.633 82.4394 172.574 82.4394 170.449 82.7047C168.324 82.97 166.199 83.5668 164.472 84.8268C162.745 86.0868 161.417 88.0099 161.351 90.132C156.171 91.3256 151.124 93.9119 146.541 96.6971C144.748 97.7582 142.955 98.9518 141.76 100.676C140.1 102.997 138.971 105.517 137.377 107.904C136.779 108.833 136.181 109.695 135.384 110.491C134.587 111.286 133.658 111.95 132.728 112.679C130.536 114.337 128.544 116.194 126.751 118.249C126.087 118.979 125.489 120.04 125.689 120.968C125.356 120.836 124.958 121.101 124.825 121.366C124.692 121.698 124.692 122.029 124.692 122.427C124.692 123.422 124.692 124.417 124.692 125.411C124.692 125.411 127.017 158.37 130.536 161.354C130.536 161.354 131.865 166.129 139.236 166.328C146.475 166.527 147.67 166.261 147.67 166.261C149.463 165.863 150.393 165.466 151.921 164.338C152.917 163.609 153.913 162.813 154.511 161.752C154.909 160.956 155.042 160.028 155.175 159.166C155.307 157.906 155.44 156.646 155.507 155.319C155.64 153.131 157.964 153.86 159.558 153.927L165.136 154.126C169.851 154.258 174.633 154.457 179.348 154.59C187.649 154.59 195.818 154.922 203.986 155.187Z" fill="#7D56A5"/>
<path d="M130.47 89.5351L128.876 90.1982L148.667 119.907L149.397 119.244L145.413 88.6067L130.47 89.5351Z" fill="#0F3051"/>
<path d="M128.876 90.2645L133.26 119.907H148.667L144.616 89.4688L128.876 90.2645Z" fill="#153B68"/>
<path d="M136.846 98.8855C136.248 98.5539 135.85 97.8908 135.85 97.1613C135.85 96.6308 135.982 96.1003 136.314 95.7024C136.647 95.3045 137.111 95.0392 137.576 95.0392C138.572 94.9729 139.369 95.9013 139.436 97.0287C139.502 98.156 138.705 99.0844 137.709 99.1507C137.377 99.1507 137.111 99.0181 136.846 98.8855ZM138.174 95.7024C137.975 95.5698 137.776 95.5697 137.576 95.5697C137.244 95.5697 136.912 95.7687 136.713 96.034C136.447 96.3655 136.381 96.7634 136.381 97.1613C136.447 98.0234 137.045 98.6865 137.709 98.6202C138.44 98.6202 138.971 97.8908 138.904 97.0287C138.904 96.4318 138.572 95.9013 138.174 95.7024Z" fill="#9DC3EA"/>
<path d="M156.237 59.2292C155.175 59.4945 154.245 60.0913 153.183 60.4892C152.12 60.8871 150.925 60.9534 150.061 60.2239C149.264 59.5608 149.132 58.3008 149.264 57.2398C148.999 58.0355 148.335 58.6987 147.538 58.8976C146.741 59.0966 145.811 58.8313 145.413 58.1019C145.014 57.4387 145.213 56.5766 145.413 55.8472C145.811 54.5872 146.475 53.4598 147.338 52.4651C146.409 53.0619 145.346 53.3935 144.217 53.4598C143.42 53.5261 142.49 53.3935 141.893 52.863C141.295 52.2662 141.162 51.4041 141.295 50.542C141.561 48.9504 142.756 47.5578 144.284 47.0273C142.49 46.4305 142.092 43.8442 143.088 42.2526C144.151 40.6611 146.143 40.0642 148.069 39.9979C149.928 39.9316 151.788 40.3295 153.647 40.7937C153.515 39.5337 153.249 38.4727 153.979 37.478C154.378 36.9474 154.976 36.6159 155.573 36.3506C156.636 35.8201 157.765 35.2896 158.96 35.1569C161.55 34.8254 164.273 36.218 165.468 38.4727C165.269 37.478 165.203 36.2843 165.8 35.4885C166.332 34.6264 167.461 34.4275 168.457 34.3612C170.184 34.2285 172.176 34.4275 173.371 35.7538C174.5 37.0138 174.5 38.8043 174.5 40.5284C174.633 40.2632 174.965 40.0642 175.231 39.9316C176.293 39.4674 177.555 39.4011 178.551 39.9316C179.547 40.4621 180.211 41.7221 179.946 42.8495C179.614 44.1094 178.286 44.9052 176.957 45.1705L179.215 64.1365C179.215 64.1365 179.946 66.3912 177.555 67.8501C175.297 69.1101 156.237 59.2292 156.237 59.2292Z" fill="#153B68"/>
<path d="M148.467 49.4147L153.382 76.6037C153.382 76.6037 154.511 81.1131 160.155 80.0521L162.347 79.8531L164.206 90.1982C164.339 90.9277 164.871 91.5909 165.535 91.8561C167.859 92.7182 173.57 93.9782 180.676 89.734C181.34 89.3362 181.739 88.5404 181.606 87.7446L177.953 63.606C177.953 63.606 182.735 63.4071 182.336 57.5051C181.938 51.6694 175.961 53.8578 175.961 53.8578C175.961 53.8578 173.57 55.0514 173.57 56.5103C173.57 56.5103 170.582 57.5714 170.25 53.2609C169.851 48.9505 169.386 48.6189 169.386 48.6189C169.386 48.6189 168.457 45.701 165.07 47.6905C161.683 49.6799 151.921 53.5262 148.467 49.4147Z" fill="#FFCACD"/>
<path d="M126.154 120.438C125.091 119.841 125.025 116.79 124.693 115.796C124.294 114.337 123.896 112.878 123.431 111.353C123.232 110.557 122.966 109.761 123.099 108.965C123.298 107.374 124.693 106.246 126.021 105.318C128.611 103.528 131.4 101.87 134.322 100.543C134.853 100.278 135.717 100.145 135.916 100.676C136.049 100.941 135.849 101.273 135.65 101.538C134.853 102.599 133.791 103.461 132.595 104.124C134.189 102.732 136.182 101.87 138.373 101.538C138.705 101.472 139.104 101.472 139.303 101.737C139.635 102.069 139.236 102.599 138.904 102.931C138.24 103.528 137.51 104.124 136.846 104.721C138.506 103.925 140.299 103.13 142.158 103.395C142.291 103.395 142.424 103.461 142.557 103.528C142.756 103.66 142.756 103.992 142.69 104.191C142.623 104.39 142.424 104.589 142.225 104.788C141.362 105.517 140.432 106.18 139.502 106.843C140.764 106.246 142.092 105.716 143.487 105.782C144.084 105.849 144.815 106.18 144.682 106.777C144.616 107.042 144.35 107.241 144.084 107.44C142.491 108.501 140.897 109.496 139.236 110.424C138.572 110.822 137.643 111.22 137.244 111.95C136.381 113.342 138.041 115.464 136.912 116.459C135.916 117.321 133.791 117.586 132.595 117.984C130.736 118.581 128.943 119.244 127.216 120.239C126.818 120.637 126.486 120.637 126.154 120.438Z" fill="#FFCACD"/>
<path d="M158.96 69.4416C158.894 69.4416 158.894 69.4416 158.827 69.3753L156.304 67.5848C156.171 67.5184 155.972 67.3858 155.905 67.1206C155.839 66.9216 155.839 66.6564 155.839 66.5237L156.636 58.5659C156.636 58.4333 156.769 58.3007 156.901 58.367C157.034 58.367 157.167 58.4996 157.101 58.6323L156.304 66.59C156.304 66.7227 156.304 66.8553 156.304 66.9216C156.37 66.9879 156.437 67.1206 156.569 67.1869L159.093 68.9774C159.226 69.0437 159.226 69.2426 159.159 69.3089C159.093 69.4416 159.027 69.4416 158.96 69.4416Z" fill="#8C3C31"/>
<path d="M160.753 68.8448C160.687 68.8448 160.62 68.8448 160.62 68.7785C160.089 68.3143 159.491 67.8501 158.96 67.4522C158.827 67.3859 158.827 67.1869 158.894 67.1206C158.96 66.988 159.159 66.988 159.226 67.0543C159.757 67.5185 160.355 67.9827 160.886 68.3806C161.019 68.4469 161.019 68.6459 160.952 68.7122C160.886 68.8448 160.82 68.8448 160.753 68.8448Z" fill="#8C3C31"/>
<path d="M159.956 75.0784C159.359 75.0784 158.694 74.8131 158.23 74.3489C157.698 73.8184 157.565 73.2879 157.433 72.7574C157.433 72.6911 157.433 72.6247 157.499 72.5584C157.565 72.4921 157.632 72.4921 157.698 72.4921C158.827 72.4921 160.222 72.4921 161.55 72.0942C162.48 71.829 163.808 71.2984 164.738 70.2374C164.804 70.1048 165.003 70.1048 165.07 70.2374C165.203 70.3037 165.203 70.5027 165.07 70.569C164.605 71.0995 164.074 71.4974 163.476 71.8953C163.609 72.6911 162.48 73.8847 162.281 74.0837C161.749 74.4816 160.952 75.0784 159.956 75.0784ZM157.964 72.9563C158.097 73.4205 158.296 73.7521 158.562 74.0174C158.96 74.4152 159.491 74.6142 159.956 74.6142C160.62 74.6142 161.284 74.2826 161.816 73.6858C162.347 73.1553 162.812 72.4921 162.878 72.0942C162.48 72.2932 162.015 72.4258 161.55 72.5584C160.355 72.89 159.093 72.9563 157.964 72.9563Z" fill="#8C3C31"/>
<path d="M162.413 54.9186C162.347 54.9186 162.214 54.8523 162.214 54.786C162.148 54.6534 162.214 54.5207 162.347 54.4544C163.144 54.1228 164.14 53.9902 165.003 54.1228C165.136 54.1228 165.202 54.2555 165.202 54.3881C165.202 54.5207 165.07 54.6534 164.937 54.587C164.14 54.4544 163.277 54.587 162.546 54.9186C162.48 54.9186 162.48 54.9186 162.413 54.9186Z" fill="#8C3C31"/>
<path d="M150.194 56.6429C150.061 56.6429 149.995 56.5766 149.928 56.444C149.928 56.3113 149.995 56.1787 150.127 56.1124C150.858 55.9135 151.655 55.7808 152.452 55.6482C152.585 55.6482 152.717 55.7145 152.717 55.8471C152.717 55.9798 152.651 56.1124 152.518 56.1124C151.721 56.3113 150.991 56.444 150.194 56.6429C150.26 56.6429 150.194 56.6429 150.194 56.6429Z" fill="#8C3C31"/>
<path d="M163.675 56.9745C163.675 57.6376 163.941 58.3008 164.339 58.765C164.472 58.8976 164.605 58.9639 164.738 59.0302C164.871 59.0302 165.07 58.9639 165.136 58.8313C165.203 58.6987 165.269 58.566 165.336 58.3671C165.402 57.9029 165.402 57.4387 165.136 57.0408C164.804 56.5103 163.675 55.9798 163.675 56.9745Z" fill="#8C3C31"/>
<path d="M151.854 59.03C151.854 59.6932 152.12 60.3563 152.518 60.8205C152.651 60.9532 152.784 61.0195 152.917 61.0858C153.049 61.0858 153.249 61.0195 153.315 60.8869C153.381 60.7542 153.448 60.6216 153.514 60.4226C153.581 59.9584 153.581 59.4942 153.315 59.0964C152.983 58.5658 151.854 57.969 151.854 59.03Z" fill="#8C3C31"/>
<path d="M175.895 60.3565C175.828 60.3565 175.828 60.3565 175.895 60.3565C175.695 60.3565 175.629 60.2239 175.629 60.0913C175.762 59.3618 176.027 58.6987 176.492 58.1018C177.024 57.3724 177.754 56.9082 178.485 56.4439C178.617 56.3776 178.75 56.3776 178.817 56.5103C178.883 56.6429 178.883 56.7755 178.75 56.8418C178.086 57.306 177.356 57.7702 176.891 58.4334C176.492 58.9639 176.227 59.5607 176.16 60.1576C176.094 60.2239 175.961 60.3565 175.895 60.3565Z" fill="#8C3C31"/>
<path d="M174.566 76.7362C174.434 76.7362 174.367 76.6699 174.301 76.5373C174.301 76.4046 174.367 76.272 174.5 76.272C176.027 75.9404 177.289 74.7468 177.688 73.2878C177.887 72.3594 177.821 71.431 177.688 70.5026C177.688 70.37 177.754 70.2374 177.887 70.2374C178.02 70.1711 178.153 70.3037 178.153 70.4363C178.219 71.3647 178.352 72.4258 178.086 73.4205C177.754 75.012 176.359 76.3383 174.566 76.7362C174.633 76.7362 174.633 76.7362 174.566 76.7362Z" fill="#8C3C31"/>
<path d="M172.641 77.3993C172.641 77.3993 172.574 77.3993 172.641 77.3993C172.441 77.3993 172.309 77.2666 172.309 77.134C172.309 77.0014 172.441 76.8687 172.574 76.8687H172.641C172.973 76.8687 173.238 76.8024 173.504 76.6698C173.637 76.6035 173.77 76.6698 173.836 76.7361C173.902 76.8687 173.836 77.0014 173.77 77.0677C173.438 77.2666 173.039 77.3993 172.641 77.3993Z" fill="#8C3C31"/>
<path d="M162.413 79.8531C162.28 79.8531 162.214 79.7867 162.147 79.6541C162.147 79.5215 162.214 79.3889 162.347 79.3889L166.198 78.5931C166.331 78.5268 166.464 78.6594 166.464 78.792C166.464 78.9247 166.398 79.0573 166.265 79.0573L162.413 79.8531C162.48 79.8531 162.48 79.8531 162.413 79.8531Z" fill="#8C3C31"/>
<path d="M172.906 56.3776C172.043 56.3776 171.18 55.7808 170.715 55.0513C170.184 54.1893 169.984 52.9956 169.852 51.7356C169.586 49.6798 169.32 47.6904 167.461 47.2262C166.664 47.0273 165.867 47.2925 165.269 47.4915C165.136 47.5578 165.004 47.4915 164.937 47.3588C164.871 47.2262 164.937 47.0936 165.07 47.0273C165.668 46.762 166.597 46.4967 167.594 46.6957C169.785 47.2262 170.117 49.5472 170.383 51.603C170.516 52.7966 170.715 53.9903 171.18 54.7198C171.645 55.4492 172.641 56.0461 173.504 55.7145C173.637 55.6482 173.77 55.7145 173.836 55.8471C173.903 55.9797 173.836 56.1124 173.703 56.1787C173.371 56.3113 173.172 56.3776 172.906 56.3776Z" fill="#09213A"/>
<path d="M173.172 41.1252C173.039 41.1252 172.973 41.0589 172.906 40.9263C172.84 40.7937 172.973 40.661 173.106 40.5947C173.239 40.5284 173.371 40.3958 173.504 40.3295C174.235 39.4674 174.567 38.2737 174.301 37.1463C174.035 36.0853 173.172 35.0906 172.11 34.759C171.977 34.6927 171.91 34.5601 171.977 34.4274C172.043 34.2948 172.176 34.2285 172.309 34.2948C173.504 34.759 174.5 35.8201 174.832 37.08C175.164 38.34 174.832 39.7326 173.969 40.7273C173.703 40.86 173.504 41.0589 173.172 41.1252C173.239 41.1252 173.172 41.1252 173.172 41.1252Z" fill="#09213A"/>
<path d="M176.691 45.2369C176.359 45.2369 176.094 45.1705 175.762 45.1042C175.629 45.0379 175.562 44.9053 175.562 44.7726C175.629 44.64 175.762 44.5737 175.895 44.5737C176.359 44.7063 176.891 44.7063 177.422 44.5737C177.887 44.4411 178.285 44.2421 178.684 43.9106C179.082 43.6453 179.281 43.3137 179.414 42.9821C179.614 42.5179 179.547 41.9211 179.547 41.4569C179.547 41.3243 179.614 41.1917 179.746 41.1917C179.879 41.1917 180.012 41.258 180.012 41.3906C180.078 41.9211 180.078 42.5843 179.879 43.1811C179.68 43.579 179.414 43.9769 178.949 44.3084C178.485 44.7063 177.953 44.9053 177.488 45.0379C177.223 45.2369 176.957 45.2369 176.691 45.2369Z" fill="#09213A"/>
<path d="M165.336 40.1305C165.203 40.1305 165.07 39.9978 165.07 39.8652C165.203 38.9368 164.871 37.8758 164.207 37.1463C163.609 36.4168 162.613 35.9526 161.683 35.8863C161.55 35.8863 161.418 35.7537 161.484 35.6211C161.484 35.4884 161.617 35.4221 161.75 35.4221C162.879 35.4884 163.875 36.019 164.605 36.881C165.336 37.7431 165.668 38.8705 165.535 39.9315C165.601 39.9978 165.469 40.1305 165.336 40.1305Z" fill="#09213A"/>
<path d="M145.213 47.0273C144.748 47.0273 144.35 46.9609 143.951 46.6957C143.686 46.5631 143.486 46.3641 143.221 46.0989C142.955 45.7673 142.689 45.3694 142.623 44.9715C142.424 44.3747 142.424 43.7115 142.623 42.9157C142.623 42.7831 142.756 42.7168 142.889 42.7168C143.022 42.7168 143.088 42.9157 143.088 43.0484C142.955 43.7115 142.889 44.3084 143.088 44.8389C143.221 45.1704 143.354 45.502 143.619 45.7673C143.818 45.9662 144.018 46.1652 144.15 46.2315C144.748 46.5631 145.545 46.4967 146.408 46.3641C146.541 46.3641 146.674 46.4304 146.674 46.5631C146.674 46.6957 146.608 46.8283 146.475 46.8283C146.076 46.9609 145.612 47.0273 145.213 47.0273Z" fill="#09213A"/>
<path d="M144.483 53.1944C144.416 53.1944 144.284 53.1944 144.217 53.1944C143.752 53.1944 143.155 53.1281 142.623 52.8628C142.026 52.5976 141.627 52.1334 141.428 51.6029C141.361 51.4702 141.428 51.3376 141.561 51.2713C141.694 51.205 141.826 51.2713 141.893 51.4039C142.026 51.8018 142.358 52.1334 142.823 52.3323C143.287 52.5313 143.819 52.5976 144.284 52.5976C144.748 52.5976 145.08 52.5976 145.346 52.5313C146.276 52.3323 147.073 51.6029 147.737 51.006C147.87 50.9397 148.003 50.9397 148.069 51.006C148.135 51.1387 148.135 51.2713 148.069 51.3376C147.338 51.9344 146.475 52.7302 145.413 52.9955C145.147 53.1281 144.815 53.1944 144.483 53.1944Z" fill="#09213A"/>
<path d="M150.459 60.4227C149.795 60.4227 149.131 59.8922 148.866 59.2954C148.733 59.0301 148.666 58.6985 148.666 58.4333C148.467 58.6985 148.202 58.8975 147.936 59.0301C147.405 59.2954 146.608 59.428 146.01 59.0301C145.545 58.7649 145.279 58.168 145.213 57.4386C145.147 56.8417 145.213 56.1786 145.346 55.5818C145.412 55.4491 145.545 55.3828 145.678 55.3828C145.811 55.4491 145.877 55.5818 145.877 55.7144C145.744 56.2449 145.678 56.8417 145.744 57.3723C145.811 57.7701 145.944 58.3007 146.342 58.6322C146.807 58.8975 147.405 58.8312 147.737 58.6322C148.268 58.367 148.733 57.8365 148.866 57.1733C148.932 57.0407 149.065 56.9744 149.198 56.9744C149.33 57.0407 149.397 57.1733 149.397 57.3059C149.198 58.0354 149.198 58.6322 149.397 59.1628C149.596 59.627 150.194 60.0912 150.792 59.9585C150.924 59.8922 151.057 60.0248 151.124 60.1575C151.19 60.2901 151.057 60.4227 150.924 60.4891C150.725 60.4227 150.592 60.4227 150.459 60.4227Z" fill="#09213A"/>
<path d="M169.32 101.14C169.055 101.14 168.789 101.074 168.59 100.875C166 98.6865 163.808 95.9676 162.214 92.9835C161.683 91.9888 161.152 90.7288 161.152 89.4688C161.152 87.8109 161.417 86.6836 162.945 85.6225C163.078 85.5562 163.211 85.5562 163.277 85.6889C163.343 85.8215 163.343 85.9541 163.211 86.0204C161.882 86.8825 161.683 87.8772 161.683 89.4025C161.683 90.5961 162.214 91.7235 162.679 92.7182C164.207 95.6361 166.332 98.355 168.922 100.411C169.055 100.477 169.187 100.543 169.387 100.543C169.652 100.278 169.918 100.079 170.117 99.8802C170.383 99.6813 170.649 99.416 170.914 99.1508C171.047 99.0181 171.246 98.8192 171.445 98.5539C172.309 97.4929 173.637 95.9676 174.832 95.9013C175.231 95.9013 175.629 96.034 175.895 96.3655C176.293 96.7634 176.758 97.1613 177.223 97.6255C178.153 98.4876 179.083 99.3497 179.88 100.344C180.676 100.344 182.071 98.5539 182.602 97.8245L182.735 97.6255C184.13 95.7687 185.192 93.5803 185.856 90.994C186.321 89.2698 186.122 87.5457 185.259 86.352C184.595 85.4236 183.532 84.7604 182.602 84.1636C182.47 84.0973 182.47 83.9647 182.536 83.832C182.602 83.6994 182.735 83.6994 182.868 83.7657C183.864 84.3626 184.993 85.092 185.724 86.0867C186.653 87.413 186.853 89.2035 186.388 91.1267C185.724 93.7793 184.661 96.034 183.2 97.9571L183.067 98.156C181.938 99.615 180.743 101.008 179.813 100.809C179.747 100.809 179.68 100.742 179.68 100.742C178.95 99.7476 177.954 98.8855 177.024 98.0234C176.559 97.6255 176.094 97.2276 175.696 96.7634C175.496 96.5645 175.297 96.4982 174.965 96.4982C173.969 96.5645 172.707 98.0897 171.91 99.0181C171.711 99.2834 171.512 99.4823 171.379 99.615C171.113 99.8802 170.848 100.145 170.582 100.344C170.316 100.543 170.051 100.809 169.785 101.074C169.719 101.14 169.652 101.14 169.586 101.14C169.453 101.14 169.387 101.14 169.32 101.14Z" fill="#0F376A"/>
<path d="M175.164 117.984H172.109C171.977 117.984 171.844 117.851 171.844 117.719C171.844 117.586 171.977 117.454 172.109 117.454H174.965L174.832 96.9623C174.832 96.8296 174.965 96.697 175.098 96.697C175.231 96.697 175.363 96.8296 175.363 96.9623L175.496 117.719C175.496 117.785 175.496 117.851 175.43 117.918C175.297 117.984 175.231 117.984 175.164 117.984Z" fill="#0F376A"/>
<path d="M171.246 107.307C170.516 107.307 169.918 106.711 169.918 105.981C169.918 105.252 170.516 104.655 171.246 104.655C171.977 104.655 172.574 105.252 172.574 105.981C172.574 106.711 172.043 107.307 171.246 107.307ZM171.246 105.119C170.781 105.119 170.383 105.517 170.383 105.981C170.383 106.445 170.781 106.843 171.246 106.843C171.711 106.843 172.11 106.445 172.11 105.981C172.11 105.517 171.711 105.119 171.246 105.119Z" fill="#0F376A"/>
<path d="M171.246 114.005C170.516 114.005 169.918 113.409 169.918 112.679C169.918 111.95 170.516 111.353 171.246 111.353C171.977 111.353 172.574 111.95 172.574 112.679C172.641 113.409 172.043 114.005 171.246 114.005ZM171.246 111.817C170.781 111.817 170.383 112.215 170.383 112.679C170.383 113.143 170.781 113.541 171.246 113.541C171.711 113.541 172.11 113.143 172.11 112.679C172.11 112.215 171.711 111.817 171.246 111.817Z" fill="#0F376A"/>
<path d="M145.745 153.197C145.612 153.197 145.545 153.131 145.479 152.998C143.354 140.796 141.361 128.462 139.436 116.326C134.654 117.387 130.072 119.112 125.821 121.366C125.689 121.433 125.556 121.366 125.489 121.234C125.423 121.101 125.489 120.968 125.622 120.902C130.005 118.515 134.72 116.791 139.635 115.729C139.701 115.729 139.768 115.729 139.834 115.796C139.9 115.862 139.9 115.862 139.967 115.995C141.893 128.197 143.951 140.664 146.077 152.932C146.01 153.065 145.877 153.131 145.745 153.197Z" fill="#0F376A"/>
<path d="M155.64 141.791C155.507 141.791 155.374 141.659 155.374 141.526L155.042 118.78C155.042 118.647 155.175 118.515 155.308 118.515C155.44 118.515 155.573 118.647 155.573 118.78L155.905 141.526C155.905 141.659 155.772 141.791 155.64 141.791Z" fill="#0F376A"/>
<path d="M155.706 147.362C155.573 147.362 155.44 147.229 155.44 147.096V143.582C155.44 143.449 155.573 143.316 155.706 143.316C155.839 143.316 155.972 143.449 155.972 143.582V147.096C155.972 147.229 155.839 147.362 155.706 147.362Z" fill="#0F376A"/>
<path d="M199.603 122.361C199.736 122.295 199.869 122.361 199.935 122.494L207.44 143.98C207.506 144.112 207.44 144.245 207.307 144.311C207.174 144.377 207.041 144.311 206.975 144.179L199.47 122.693C199.404 122.56 199.47 122.427 199.603 122.361Z" fill="#0F376A"/>
<path d="M197.81 117.056C197.943 116.989 198.076 117.056 198.142 117.188L199.271 120.504C199.338 120.637 199.271 120.769 199.138 120.836C199.006 120.902 198.873 120.836 198.806 120.703L197.677 117.387C197.611 117.255 197.677 117.122 197.81 117.056Z" fill="#0F376A"/>
<path d="M151.721 164.67C151.655 164.67 151.589 164.603 151.522 164.537C151.456 164.404 151.456 164.272 151.589 164.206C153.116 163.277 153.979 161.686 154.378 160.558C154.975 159.033 155.175 157.309 155.308 155.85C155.507 153.529 155.64 151.208 155.64 148.887C155.64 148.754 155.772 148.622 155.905 148.622C156.038 148.622 156.171 148.754 156.171 148.887C156.171 151.208 156.038 153.595 155.839 155.916C155.706 157.375 155.507 159.099 154.909 160.757C154.444 161.951 153.581 163.675 151.921 164.67C151.788 164.67 151.721 164.67 151.721 164.67Z" fill="#0F376A"/>
<path d="M147.537 150.744C147.405 150.744 147.338 150.677 147.272 150.545C147.006 149.749 146.807 148.953 146.342 148.224C145.877 147.428 145.28 146.897 144.615 146.698C144.483 146.632 144.416 146.5 144.483 146.367C144.549 146.234 144.682 146.168 144.815 146.234C145.612 146.5 146.342 147.096 146.873 148.025C147.338 148.821 147.604 149.616 147.803 150.478C147.87 150.611 147.737 150.744 147.604 150.81C147.604 150.744 147.604 150.744 147.537 150.744Z" fill="#0F376A"/>
<path d="M190.04 146.698H168.524C167.594 146.698 166.863 147.494 166.996 148.489L169.32 166.394C169.52 167.919 170.848 169.113 172.442 169.113H186.388C187.982 169.113 189.31 167.919 189.509 166.394L191.634 148.489C191.701 147.494 190.97 146.698 190.04 146.698Z" fill="#F7E4CA"/>
<path d="M192.033 163.41C192.631 163.41 193.162 163.343 193.627 163.277C195.287 162.945 196.682 162.017 197.611 160.691C198.607 159.165 198.873 157.176 198.209 155.584C197.811 154.59 196.947 153.728 195.885 153.064C194.224 152.07 192.232 151.738 190.373 152.136L190.837 154.258C192.166 153.993 193.56 154.192 194.756 154.921C195.221 155.187 195.885 155.717 196.217 156.447C196.615 157.375 196.482 158.569 195.818 159.497C195.287 160.359 194.291 160.956 193.228 161.155C192.299 161.354 191.17 161.288 189.841 160.956L189.31 163.078C190.306 163.343 191.17 163.41 192.033 163.41Z" fill="#F7E4CA"/>
<path d="M185.724 148.688C184.13 148.887 182.536 149.285 180.942 149.019C179.282 148.754 177.754 147.693 176.094 147.56C173.438 147.295 170.914 149.086 168.258 148.82C168.258 149.152 168.457 149.417 168.723 149.616C168.988 149.815 169.254 149.881 169.586 149.948C170.781 150.279 171.977 150.545 173.172 150.876C173.969 151.075 174.7 151.274 175.497 151.34C176.028 151.407 176.493 151.407 177.024 151.407C178.751 151.407 180.477 151.407 182.204 151.407C183.864 151.407 185.591 151.407 187.185 151.009C188.247 150.743 189.31 150.346 190.24 149.749C190.306 149.682 190.372 149.682 190.439 149.55C190.572 149.086 188.646 148.688 188.314 148.688C187.45 148.489 186.587 148.555 185.724 148.688Z" fill="#8C3C31"/>
<path d="M182.47 151.539C182.337 151.539 182.204 151.407 182.204 151.274C182.204 151.141 182.337 151.009 182.47 151.009C183.732 151.009 185.06 150.876 186.388 150.744C187.384 150.611 188.579 150.478 189.576 149.881C190.041 149.616 190.306 149.351 190.306 149.019C190.373 148.621 190.107 148.29 189.841 148.157C189.509 147.958 189.111 147.892 188.779 147.892C188.646 147.892 188.513 147.759 188.579 147.627C188.579 147.494 188.712 147.361 188.845 147.428C189.244 147.494 189.708 147.56 190.107 147.759C190.505 148.025 190.904 148.489 190.837 149.086C190.771 149.55 190.439 150.014 189.841 150.346C188.779 150.942 187.517 151.141 186.454 151.274C185.06 151.407 183.732 151.473 182.47 151.539Z" fill="#FFBE71"/>
<path d="M178.883 151.672C178.419 151.672 178.02 151.672 177.555 151.605C177.422 151.605 177.29 151.473 177.29 151.34C177.29 151.208 177.356 151.075 177.555 151.075C178.817 151.141 180.012 151.141 181.274 151.009C181.407 150.942 181.54 151.075 181.54 151.208C181.54 151.34 181.473 151.473 181.341 151.473C180.544 151.605 179.68 151.672 178.883 151.672Z" fill="#FFBE71"/>
<path d="M176.36 151.473C174.036 151.473 171.711 151.075 169.52 150.345C169.121 150.213 168.656 150.014 168.324 149.682C167.992 149.351 167.727 148.688 167.992 148.157C168.324 147.428 169.188 147.361 169.52 147.295C169.652 147.229 169.785 147.361 169.785 147.494C169.785 147.627 169.719 147.759 169.586 147.759C169.121 147.825 168.59 147.958 168.457 148.356C168.324 148.688 168.457 149.085 168.723 149.351C168.988 149.616 169.387 149.749 169.719 149.881C171.91 150.611 174.168 151.009 176.426 151.009C176.493 151.009 176.493 151.009 176.559 151.009C176.692 151.009 176.825 151.141 176.825 151.274C176.825 151.406 176.692 151.539 176.559 151.539C176.426 151.473 176.36 151.473 176.36 151.473Z" fill="#FFBE71"/>
<path d="M198.806 172.561H177.555C177.422 172.561 177.29 172.428 177.29 172.296C177.29 172.163 177.422 172.031 177.555 172.031H198.806C198.939 172.031 199.072 172.163 199.072 172.296C199.072 172.428 198.939 172.561 198.806 172.561Z" fill="#8C3C31"/>
<path d="M192.962 169.511H168.324C168.191 169.511 168.059 169.378 168.059 169.245C168.059 169.113 168.191 168.98 168.324 168.98H192.962C193.095 168.98 193.228 169.113 193.228 169.245C193.228 169.378 193.162 169.511 192.962 169.511Z" fill="#8C3C31"/>
<path d="M156.769 166.526H132.131C131.998 166.526 131.865 166.394 131.865 166.261C131.865 166.128 131.998 165.996 132.131 165.996H156.769C156.902 165.996 157.035 166.128 157.035 166.261C157.035 166.394 156.902 166.526 156.769 166.526Z" fill="#8C3C31"/>
<path opacity="0.9" d="M247.981 152.47H212.389C210.849 152.47 209.598 154.406 209.598 156.8C209.598 159.194 210.849 161.124 212.389 161.124H248.028L247.981 152.47Z" fill="white"/>
<path d="M247.981 152.47H212.389C210.849 152.47 209.598 154.406 209.598 156.8C209.598 159.194 210.849 161.124 212.389 161.124H248.028L247.981 152.47Z" fill="#407BFF"/>
<path d="M247.981 161.824C240.652 161.824 220.061 161.951 212.739 161.824C207.722 161.729 207.453 152.113 212.375 151.777C215.805 151.542 219.335 151.777 222.771 151.777H247.981C248.166 151.777 248.343 151.851 248.474 151.981C248.604 152.112 248.677 152.289 248.677 152.473C248.677 152.658 248.604 152.835 248.474 152.965C248.343 153.096 248.166 153.169 247.981 153.169H213.895C212.288 153.169 211.145 153.169 210.533 155.079C209.995 156.72 210.163 160.068 212.369 160.458C212.619 160.479 212.871 160.479 213.122 160.458H247.995C248.179 160.458 248.356 160.532 248.487 160.662C248.617 160.793 248.691 160.97 248.691 161.154C248.691 161.339 248.617 161.516 248.487 161.647C248.356 161.777 248.179 161.85 247.995 161.85L247.981 161.824Z" fill="#407BFF"/>
<g opacity="0.2">
<path d="M247.981 161.824C240.652 161.824 220.061 161.951 212.739 161.824C207.722 161.729 207.453 152.113 212.375 151.777C215.805 151.542 219.335 151.777 222.771 151.777H247.981C248.166 151.777 248.343 151.851 248.474 151.981C248.604 152.112 248.677 152.289 248.677 152.473C248.677 152.658 248.604 152.835 248.474 152.965C248.343 153.096 248.166 153.169 247.981 153.169H213.895C212.288 153.169 211.145 153.169 210.533 155.079C209.995 156.72 210.163 160.068 212.369 160.458C212.619 160.479 212.871 160.479 213.122 160.458H247.995C248.179 160.458 248.356 160.532 248.487 160.662C248.617 160.793 248.691 160.97 248.691 161.154C248.691 161.339 248.617 161.516 248.487 161.647C248.356 161.777 248.179 161.85 247.995 161.85L247.981 161.824Z" fill="white"/>
</g>
<path d="M262.19 152.47H242.434C240.894 152.47 239.643 154.406 239.643 156.8C239.643 159.194 240.894 161.124 242.434 161.124H262.19V152.47Z" fill="#407BFF"/>
<path opacity="0.9" d="M262.19 152.47H242.434C240.894 152.47 239.643 154.406 239.643 156.8C239.643 159.194 240.894 161.124 242.434 161.124H262.19V152.47Z" fill="white"/>
<path d="M262.19 161.824C254.861 161.824 250.147 161.951 242.817 161.824C237.801 161.729 237.532 152.113 242.454 151.777C245.883 151.542 249.414 151.777 252.85 151.777H262.19C262.375 151.777 262.552 151.851 262.682 151.981C262.813 152.112 262.886 152.289 262.886 152.473C262.886 152.658 262.813 152.835 262.682 152.965C262.552 153.096 262.375 153.169 262.19 153.169H243.994C242.387 153.169 241.237 153.169 240.632 155.079C240.094 156.72 240.269 160.068 242.467 160.458C242.718 160.479 242.97 160.479 243.221 160.458H262.224C262.408 160.458 262.586 160.532 262.716 160.662C262.847 160.793 262.92 160.97 262.92 161.154C262.92 161.339 262.847 161.516 262.716 161.647C262.586 161.777 262.408 161.85 262.224 161.85L262.19 161.824Z" fill="#407BFF"/>
<g opacity="0.2">
<path d="M262.19 161.824C254.861 161.824 250.147 161.951 242.817 161.824C237.801 161.729 237.532 152.113 242.454 151.777C245.883 151.542 249.414 151.777 252.85 151.777H262.19C262.375 151.777 262.552 151.851 262.682 151.981C262.813 152.112 262.886 152.289 262.886 152.473C262.886 152.658 262.813 152.835 262.682 152.965C262.552 153.096 262.375 153.169 262.19 153.169H243.994C242.387 153.169 241.237 153.169 240.632 155.079C240.094 156.72 240.269 160.068 242.467 160.458C242.718 160.479 242.97 160.479 243.221 160.458H262.224C262.408 160.458 262.586 160.532 262.716 160.662C262.847 160.793 262.92 160.97 262.92 161.154C262.92 161.339 262.847 161.516 262.716 161.647C262.586 161.777 262.408 161.85 262.224 161.85L262.19 161.824Z" fill="white"/>
</g>
<path opacity="0.9" d="M252.614 168.837H215.556C213.956 168.837 212.658 170.855 212.658 173.336C212.658 175.817 213.956 177.835 215.556 177.835H252.614V168.837Z" fill="white"/>
<path d="M252.614 168.837H215.556C213.956 168.837 212.658 170.855 212.658 173.336C212.658 175.817 213.956 177.835 215.556 177.835H252.614V168.837Z" fill="#263238"/>
<path d="M219.577 173.712C219.577 174.546 218.804 174.929 217.822 174.929H215.751L216.518 171.103H218.441C219.301 171.103 219.786 171.426 219.786 171.998C219.787 172.207 219.724 172.412 219.603 172.583C219.482 172.754 219.311 172.884 219.113 172.952C219.258 173.018 219.379 173.126 219.462 173.261C219.545 173.397 219.585 173.554 219.577 173.712ZM218.501 173.712C218.501 173.484 218.313 173.39 218.051 173.39H217.096L216.941 174.17H217.883C218.259 174.156 218.501 174.002 218.501 173.692V173.712ZM217.398 171.903L217.251 172.643H218.024C218.407 172.643 218.616 172.489 218.616 172.206C218.616 171.924 218.447 171.903 218.165 171.903H217.398Z" fill="white"/>
<path d="M222.677 174.156H221.043L220.606 174.903H219.463L221.917 171.076H222.98L223.908 174.903H222.832L222.677 174.156ZM222.509 173.363L222.254 172.119L221.521 173.363H222.509Z" fill="white"/>
<path d="M228.615 171.103L227.855 174.929H226.773L227.069 173.443H225.596L225.307 174.929H224.224L224.984 171.103H226.067L225.784 172.536H227.257L227.539 171.103H228.615Z" fill="white"/>
<path d="M231.372 174.156H229.745L229.301 174.903H228.158L230.612 171.076H231.681L232.603 174.903H231.527L231.372 174.156ZM231.211 173.363L230.955 172.119L230.222 173.363H231.211Z" fill="white"/>
<path d="M232.744 174.593L233.167 173.786C233.549 174.03 233.992 174.161 234.445 174.163C234.862 174.163 235.117 174.035 235.117 173.827C235.117 173.309 233.261 173.598 233.261 172.394C233.261 171.567 233.968 171.05 235.097 171.05C235.578 171.032 236.055 171.146 236.476 171.379L236.086 172.186C235.769 171.988 235.403 171.886 235.03 171.89C234.586 171.89 234.358 172.058 234.358 172.267C234.358 172.791 236.213 172.489 236.213 173.672C236.213 174.492 235.494 175.017 234.371 175.017C233.799 175.035 233.234 174.888 232.744 174.593Z" fill="white"/>
<path d="M239.206 174.156H237.572L237.135 174.903H235.992L238.446 171.076H239.509L240.437 174.903H239.361L239.206 174.156ZM239.038 173.363L238.782 172.119L238.049 173.363H239.038Z" fill="white"/>
<path d="M252.615 177.115C252.794 177.132 252.961 177.216 253.082 177.35C253.204 177.483 253.271 177.657 253.271 177.838C253.271 178.018 253.204 178.193 253.082 178.326C252.961 178.46 252.794 178.543 252.615 178.561C244.996 178.561 223.578 178.695 215.96 178.561C210.741 178.467 210.459 168.474 215.576 168.111C219.147 167.869 222.819 168.111 226.396 168.111H252.621C252.801 168.128 252.968 168.212 253.089 168.346C253.211 168.479 253.278 168.653 253.278 168.834C253.278 169.014 253.211 169.188 253.089 169.322C252.968 169.456 252.801 169.539 252.621 169.557H217.163C215.496 169.557 214.299 169.557 213.653 171.574C213.095 173.282 213.27 176.765 215.556 177.142C215.818 177.162 216.081 177.162 216.343 177.142H252.615V177.115Z" fill="#263238"/>
<path d="M267.395 168.837H246.845C245.245 168.837 243.947 170.855 243.947 173.336C243.947 175.817 245.245 177.835 246.845 177.835H267.395V168.837Z" fill="#407BFF"/>
<path opacity="0.9" d="M267.395 168.837H246.845C245.245 168.837 243.947 170.855 243.947 173.336C243.947 175.817 245.245 177.835 246.845 177.835H267.395V168.837Z" fill="white"/>
<path d="M267.395 178.561C259.776 178.561 254.868 178.695 247.222 178.561C242.004 178.467 241.721 168.474 246.839 168.111C250.409 167.869 254.081 168.111 257.651 168.111H267.395C267.575 168.128 267.742 168.212 267.863 168.346C267.984 168.479 268.052 168.653 268.052 168.834C268.052 169.014 267.984 169.188 267.863 169.322C267.742 169.456 267.575 169.539 267.395 169.557H248.452C246.778 169.557 245.588 169.557 244.936 171.574C244.377 173.282 244.559 176.765 246.845 177.142C247.105 177.162 247.366 177.162 247.625 177.142H267.395C267.575 177.159 267.742 177.243 267.863 177.377C267.984 177.51 268.052 177.684 268.052 177.865C268.052 178.045 267.984 178.219 267.863 178.353C267.742 178.487 267.575 178.57 267.395 178.588V178.561Z" fill="#407BFF"/>
<g opacity="0.2">
<path d="M267.395 178.561C259.776 178.561 254.868 178.695 247.222 178.561C242.004 178.467 241.721 168.474 246.839 168.111C250.409 167.869 254.081 168.111 257.651 168.111H267.395C267.575 168.128 267.742 168.212 267.863 168.346C267.984 168.479 268.052 168.653 268.052 168.834C268.052 169.014 267.984 169.188 267.863 169.322C267.742 169.456 267.575 169.539 267.395 169.557H248.452C246.778 169.557 245.588 169.557 244.936 171.574C244.377 173.282 244.559 176.765 246.845 177.142C247.105 177.162 247.366 177.162 247.625 177.142H267.395C267.575 177.159 267.742 177.243 267.863 177.377C267.984 177.51 268.052 177.684 268.052 177.865C268.052 178.045 267.984 178.219 267.863 178.353C267.742 178.487 267.575 178.57 267.395 178.588V178.561Z" fill="white"/>
</g>
<path opacity="0.9" d="M244.982 161.797H209.343C208.594 161.833 207.888 162.155 207.37 162.698C206.853 163.241 206.564 163.962 206.564 164.712C206.564 165.461 206.853 166.182 207.37 166.725C207.888 167.268 208.594 167.591 209.343 167.627H244.982V161.797Z" fill="white"/>
<path d="M244.982 161.797H209.343C208.594 161.833 207.888 162.155 207.37 162.698C206.853 163.241 206.564 163.962 206.564 164.712C206.564 165.461 206.853 166.182 207.37 166.725C207.888 167.268 208.594 167.591 209.343 167.627H244.982V161.797Z" fill="#407BFF"/>
<path opacity="0.2" d="M244.982 161.797H209.343C208.594 161.833 207.888 162.155 207.37 162.698C206.853 163.241 206.564 163.962 206.564 164.712C206.564 165.461 206.853 166.182 207.37 166.725C207.888 167.268 208.594 167.591 209.343 167.627H244.982V161.797Z" fill="black"/>
<path opacity="0.2" d="M244.982 161.797H209.343C208.594 161.833 207.888 162.155 207.37 162.698C206.853 163.241 206.564 163.962 206.564 164.712C206.564 165.461 206.853 166.182 207.37 166.725C207.888 167.268 208.594 167.591 209.343 167.627H244.982V161.797Z" fill="black"/>
<path d="M211.394 163.202H212.617C212.974 163.202 213.316 163.344 213.568 163.596C213.821 163.848 213.962 164.19 213.962 164.547C213.962 164.903 213.821 165.246 213.568 165.498C213.316 165.75 212.974 165.892 212.617 165.892H211.394V163.202ZM212.584 165.381C212.805 165.381 213.017 165.293 213.173 165.136C213.33 164.98 213.418 164.768 213.418 164.547C213.418 164.326 213.33 164.114 213.173 163.957C213.017 163.801 212.805 163.713 212.584 163.713H212.019V165.414L212.584 165.381Z" fill="white"/>
<path d="M214.447 163.202C214.459 163.112 214.503 163.029 214.572 162.969C214.641 162.909 214.729 162.876 214.82 162.876C214.911 162.876 214.999 162.909 215.068 162.969C215.137 163.029 215.181 163.112 215.193 163.202C215.192 163.25 215.182 163.297 215.162 163.34C215.143 163.384 215.114 163.423 215.079 163.455C215.044 163.487 215.002 163.512 214.957 163.527C214.912 163.543 214.864 163.549 214.817 163.545C214.769 163.549 214.722 163.543 214.677 163.527C214.632 163.512 214.591 163.487 214.557 163.455C214.522 163.422 214.494 163.383 214.475 163.34C214.456 163.296 214.447 163.249 214.447 163.202ZM214.521 163.827H215.119V165.892H214.521V163.827Z" fill="white"/>
<path d="M215.522 164.856C215.523 164.709 215.554 164.564 215.613 164.43C215.672 164.295 215.758 164.174 215.866 164.075C215.974 163.975 216.101 163.899 216.24 163.85C216.379 163.802 216.526 163.783 216.672 163.794C216.861 163.78 217.049 163.822 217.213 163.915C217.377 164.009 217.51 164.149 217.594 164.318L217.13 164.574C217.088 164.486 217.022 164.412 216.94 164.361C216.858 164.31 216.763 164.283 216.666 164.285C216.514 164.285 216.369 164.345 216.261 164.452C216.154 164.559 216.094 164.705 216.094 164.856C216.094 165.008 216.154 165.153 216.261 165.26C216.369 165.368 216.514 165.428 216.666 165.428C216.762 165.431 216.857 165.406 216.94 165.356C217.022 165.305 217.088 165.232 217.13 165.145L217.594 165.401C217.508 165.568 217.375 165.707 217.211 165.799C217.047 165.891 216.86 165.933 216.672 165.919C216.526 165.931 216.378 165.912 216.239 165.864C216.1 165.816 215.972 165.74 215.864 165.64C215.756 165.54 215.67 165.419 215.611 165.284C215.552 165.149 215.522 165.003 215.522 164.856Z" fill="white"/>
<path d="M219.302 165.791C219.157 165.881 218.988 165.926 218.818 165.919C218.715 165.935 218.611 165.927 218.512 165.896C218.413 165.866 218.323 165.812 218.248 165.741C218.173 165.669 218.116 165.581 218.08 165.484C218.045 165.386 218.033 165.282 218.044 165.179V164.332H217.722V163.875H218.044V163.397H218.643V163.902H219.154V164.359H218.643V165.199C218.638 165.235 218.641 165.271 218.652 165.306C218.662 165.34 218.681 165.372 218.705 165.398C218.73 165.424 218.76 165.445 218.793 165.458C218.827 165.472 218.863 165.477 218.898 165.475C218.986 165.476 219.071 165.448 219.141 165.394L219.302 165.791Z" fill="white"/>
<path d="M219.564 163.202C219.565 163.155 219.575 163.108 219.595 163.065C219.615 163.023 219.643 162.984 219.679 162.953C219.714 162.922 219.756 162.899 219.801 162.885C219.846 162.871 219.894 162.867 219.941 162.873C219.987 162.867 220.033 162.871 220.077 162.885C220.122 162.898 220.163 162.921 220.198 162.951C220.232 162.982 220.261 163.019 220.28 163.061C220.299 163.103 220.31 163.149 220.31 163.195C220.298 163.286 220.254 163.369 220.185 163.429C220.116 163.489 220.028 163.522 219.937 163.522C219.846 163.522 219.758 163.489 219.689 163.429C219.621 163.369 219.576 163.286 219.564 163.195V163.202ZM219.638 163.827H220.236V165.892H219.638V163.827Z" fill="white"/>
<path d="M220.64 164.856C220.625 164.629 220.679 164.403 220.795 164.206C220.91 164.01 221.082 163.853 221.288 163.755C221.494 163.658 221.724 163.624 221.949 163.66C222.175 163.695 222.384 163.797 222.55 163.952C222.717 164.108 222.832 164.31 222.883 164.532C222.933 164.754 222.915 164.986 222.832 165.198C222.748 165.41 222.603 165.593 222.415 165.721C222.227 165.849 222.004 165.918 221.777 165.919C221.631 165.929 221.485 165.909 221.347 165.86C221.21 165.811 221.084 165.735 220.977 165.635C220.87 165.535 220.785 165.415 220.727 165.281C220.669 165.147 220.64 165.002 220.64 164.856ZM222.301 164.856C222.293 164.753 222.255 164.654 222.192 164.572C222.129 164.49 222.043 164.429 221.945 164.395C221.847 164.361 221.742 164.356 221.641 164.382C221.541 164.407 221.45 164.461 221.38 164.538C221.31 164.614 221.264 164.709 221.247 164.811C221.23 164.913 221.244 165.018 221.286 165.113C221.328 165.208 221.397 165.288 221.484 165.344C221.571 165.4 221.673 165.429 221.777 165.428C221.85 165.428 221.922 165.413 221.989 165.384C222.056 165.355 222.116 165.312 222.165 165.258C222.214 165.204 222.252 165.141 222.275 165.072C222.299 165.002 222.308 164.929 222.301 164.856Z" fill="white"/>
<path d="M225.414 164.742V165.925H224.816V164.836C224.816 164.5 224.661 164.345 224.399 164.345C224.137 164.345 223.901 164.52 223.901 164.903V165.925H223.303V163.861H223.874V164.069C223.961 163.979 224.065 163.908 224.181 163.86C224.297 163.813 224.422 163.79 224.547 163.794C224.671 163.782 224.796 163.8 224.912 163.845C225.028 163.89 225.132 163.961 225.216 164.053C225.3 164.144 225.361 164.254 225.396 164.374C225.43 164.493 225.436 164.619 225.414 164.742Z" fill="white"/>
<path d="M227.781 164.742V165.919H227.217V165.663C227.147 165.762 227.053 165.841 226.943 165.89C226.833 165.94 226.711 165.959 226.591 165.946C226.107 165.946 225.818 165.677 225.818 165.32C225.818 164.964 226.073 164.702 226.706 164.702H227.183C227.183 164.446 227.028 164.298 226.706 164.298C226.493 164.297 226.286 164.363 226.114 164.487L225.899 164.07C226.163 163.9 226.472 163.813 226.786 163.821C227.418 163.794 227.781 164.07 227.781 164.742ZM227.183 165.267V165.051H226.773C226.49 165.051 226.403 165.159 226.403 165.294C226.403 165.428 226.531 165.542 226.739 165.542C226.836 165.547 226.932 165.52 227.012 165.466C227.092 165.411 227.152 165.332 227.183 165.24V165.267Z" fill="white"/>
<path d="M229.604 163.794V164.345H229.469C229.393 164.338 229.316 164.349 229.244 164.376C229.172 164.403 229.107 164.446 229.054 164.501C229.001 164.557 228.962 164.624 228.938 164.697C228.914 164.77 228.907 164.847 228.918 164.923V165.898H228.319V163.834H228.891V164.103C228.976 163.998 229.086 163.916 229.21 163.862C229.334 163.808 229.469 163.785 229.604 163.794Z" fill="white"/>
<path d="M232.078 163.827L231.143 166.02C231.102 166.214 230.994 166.388 230.838 166.511C230.682 166.634 230.488 166.698 230.289 166.692C230.081 166.697 229.877 166.63 229.711 166.504L229.933 166.08C230.026 166.161 230.145 166.206 230.269 166.208C230.437 166.208 230.525 166.134 230.605 165.952L229.711 163.874H230.323L230.908 165.273L231.486 163.874L232.078 163.827Z" fill="white"/>
<path d="M244.982 168.104C237.653 168.104 217.062 168.192 209.74 168.104C204.723 168.044 204.454 161.568 209.376 161.34C212.806 161.178 216.336 161.34 219.772 161.34H244.982C245.877 161.34 245.877 162.274 244.982 162.274H210.896C209.289 162.274 208.139 162.274 207.534 163.565C206.996 164.668 207.164 166.928 209.363 167.17C209.614 167.183 209.865 167.183 210.116 167.17H244.996C245.89 167.17 245.89 168.104 244.996 168.104H244.982Z" fill="#407BFF"/>
<g opacity="0.2">
<path d="M244.982 168.104C237.653 168.104 217.062 168.192 209.74 168.104C204.723 168.044 204.454 161.568 209.376 161.34C212.806 161.178 216.336 161.34 219.772 161.34H244.982C245.877 161.34 245.877 162.274 244.982 162.274H210.896C209.289 162.274 208.139 162.274 207.534 163.565C206.996 164.668 207.164 166.928 209.363 167.17C209.614 167.183 209.865 167.183 210.116 167.17H244.996C245.89 167.17 245.89 168.104 244.996 168.104H244.982Z" fill="white"/>
</g>
<path d="M259.184 161.797H239.428C238.679 161.833 237.973 162.155 237.455 162.698C236.938 163.241 236.649 163.962 236.649 164.712C236.649 165.461 236.938 166.182 237.455 166.725C237.973 167.268 238.679 167.591 239.428 167.627H259.184V161.797Z" fill="#407BFF"/>
<path opacity="0.9" d="M259.184 161.797H239.428C238.679 161.833 237.973 162.155 237.455 162.698C236.938 163.241 236.649 163.962 236.649 164.712C236.649 165.461 236.938 166.182 237.455 166.725C237.973 167.268 238.679 167.591 239.428 167.627H259.184V161.797Z" fill="white"/>
<path d="M259.185 168.104C251.862 168.104 247.141 168.192 239.818 168.104C234.802 168.044 234.533 161.568 239.455 161.34C242.884 161.178 246.415 161.34 249.851 161.34H259.185C260.086 161.34 260.086 162.274 259.185 162.274H240.975C239.368 162.274 238.218 162.274 237.613 163.565C237.075 164.668 237.243 166.928 239.442 167.17C239.695 167.183 239.948 167.183 240.201 167.17H259.198C260.099 167.17 260.099 168.104 259.198 168.104H259.185Z" fill="#407BFF"/>
<g opacity="0.2">
<path d="M259.185 168.104C251.862 168.104 247.141 168.192 239.818 168.104C234.802 168.044 234.533 161.568 239.455 161.34C242.884 161.178 246.415 161.34 249.851 161.34H259.185C260.086 161.34 260.086 162.274 259.185 162.274H240.975C239.368 162.274 238.218 162.274 237.613 163.565C237.075 164.668 237.243 166.928 239.442 167.17C239.695 167.183 239.948 167.183 240.201 167.17H259.198C260.099 167.17 260.099 168.104 259.198 168.104H259.185Z" fill="white"/>
</g>
<path d="M217.13 150.157L260.798 149.989C260.798 149.989 259.77 144.69 259.191 144.575C258.613 144.461 251.169 138.618 242.959 141.939C241.163 142.659 239.872 143.204 238.924 143.6C237.996 143.21 236.691 142.679 234.889 141.973C226.645 138.718 219.248 144.609 218.67 144.73C218.091 144.851 217.13 150.157 217.13 150.157Z" fill="#407BFF"/>
<path opacity="0.6" d="M217.13 150.157L260.798 149.989V149.861C260.637 149.04 259.743 144.683 259.212 144.569C259.178 144.56 259.146 144.547 259.117 144.528C258.075 144.024 250.887 138.745 242.979 141.939C241.177 142.659 239.879 143.204 238.944 143.6C238.009 143.21 236.705 142.679 234.909 141.973C226.665 138.718 219.268 144.609 218.69 144.73C218.112 144.851 217.13 150.157 217.13 150.157Z" fill="white"/>
<path d="M212.147 150.177L256.34 150.009C256.34 150.009 255.298 144.629 254.713 144.522C254.128 144.414 246.596 139.31 238.292 142.672C236.476 143.405 234.257 146.223 234.257 146.223C234.257 146.223 231.984 143.419 230.169 142.706C221.803 139.411 214.306 144.569 213.734 144.683C213.162 144.797 212.147 150.177 212.147 150.177Z" fill="#407BFF"/>
<path opacity="0.8" d="M212.147 150.177L256.34 150.009C256.34 150.009 255.298 144.629 254.713 144.522C254.128 144.414 246.596 139.31 238.292 142.672C236.476 143.405 234.257 146.223 234.257 146.223C234.257 146.223 231.984 143.419 230.169 142.706C221.803 139.411 214.306 144.569 213.734 144.683C213.162 144.797 212.147 150.177 212.147 150.177Z" fill="white"/>
<path d="M234.035 147.696L235.447 150.237L232.125 150.251L234.035 147.696Z" fill="#407BFF"/>
<g opacity="0.3">
<path d="M234.035 147.696L235.447 150.237L232.125 150.251L234.035 147.696Z" fill="black"/>
</g>
<path opacity="0.1" d="M254.753 144.569C255.055 145.172 255.294 145.806 255.466 146.458C255.883 148.072 256.32 150.029 256.32 150.029H260.778V149.901C260.617 149.081 259.722 144.723 259.191 144.609C259.158 144.601 259.126 144.587 259.097 144.569H254.753Z" fill="black"/>
<path d="M210.466 151.824L232.132 152.241L232.179 152.201C232.624 151.805 233.198 151.587 233.793 151.587C234.388 151.587 234.962 151.805 235.407 152.201L235.454 152.241L257.772 151.865L263.401 151.777L262.977 149.841L235.447 149.955C235 149.526 234.406 149.285 233.786 149.282C233.166 149.282 232.571 149.524 232.125 149.955L210.997 150.002L210.466 151.824Z" fill="#263238"/>
<g opacity="0.3">
<path d="M257.329 149.854L257.772 151.845L263.408 151.757L262.97 149.834L257.329 149.854Z" fill="black"/>
</g>
<path d="M232.112 146.519C232.112 146.519 228.696 142.625 224.581 143.365C224.581 143.365 227.465 142.988 232.112 146.519Z" fill="#407BFF"/>
<path opacity="0.4" d="M232.112 146.519C232.112 146.519 228.696 142.625 224.581 143.365C224.581 143.365 227.465 142.988 232.112 146.519Z" fill="white"/>
<path d="M240.215 148.28C240.215 148.28 244.754 145.786 248.372 147.89C248.372 147.89 245.789 146.586 240.215 148.28Z" fill="#407BFF"/>
<path opacity="0.4" d="M240.215 148.28C240.215 148.28 244.754 145.786 248.372 147.89C248.372 147.89 245.789 146.586 240.215 148.28Z" fill="white"/>
<path d="M235.924 146.962C235.924 146.962 239.542 143.264 243.617 144.225C243.604 144.225 240.739 143.694 235.924 146.962Z" fill="#407BFF"/>
<path opacity="0.4" d="M235.924 146.962C235.924 146.962 239.542 143.264 243.617 144.225C243.604 144.225 240.739 143.694 235.924 146.962Z" fill="white"/>
<path d="M226.699 146.478C226.699 146.478 222.153 143.997 218.535 146.115C218.535 146.115 221.131 144.77 226.699 146.478Z" fill="#407BFF"/>
<path opacity="0.4" d="M226.699 146.478C226.699 146.478 222.153 143.997 218.535 146.115C218.535 146.115 221.131 144.77 226.699 146.478Z" fill="white"/>
<path d="M214.164 158.172L214.406 157.708C214.658 157.887 214.958 157.983 215.267 157.984C215.603 157.984 215.812 157.863 215.812 157.675C215.812 157.258 214.52 157.48 214.52 156.653C214.52 156.115 214.984 155.772 215.711 155.772C216.026 155.76 216.338 155.837 216.612 155.994L216.383 156.451C216.17 156.322 215.926 156.254 215.677 156.256C215.327 156.256 215.119 156.39 215.119 156.572C215.119 157.002 216.41 156.78 216.41 157.581C216.41 158.119 215.939 158.468 215.213 158.468C214.842 158.478 214.476 158.375 214.164 158.172Z" fill="#263238"/>
<path d="M219.826 156.625C219.826 157.298 219.342 157.701 218.562 157.701H217.984L217.842 158.421H217.23L217.755 155.812H218.811C219.463 155.812 219.826 156.114 219.826 156.625ZM219.221 156.679C219.221 156.424 219.039 156.303 218.737 156.303H218.259L218.078 157.21H218.589C218.986 157.21 219.221 157.022 219.221 156.672V156.679Z" fill="#263238"/>
<path d="M222.2 157.863H220.99L220.647 158.421H219.974L221.662 155.812H222.26L222.899 158.421H222.301L222.2 157.863ZM222.099 157.405L221.884 156.397L221.265 157.405H222.099Z" fill="#263238"/>
<path d="M226.665 155.812L226.147 158.421H225.65L224.681 156.787L224.352 158.421H223.753L224.278 155.812H224.776L225.751 157.446L226.073 155.812H226.665Z" fill="#263238"/>
<path d="M227.855 155.812H228.46L227.936 158.421H227.331L227.855 155.812Z" fill="#263238"/>
<path d="M228.958 158.172L229.207 157.708C229.458 157.888 229.759 157.985 230.068 157.984C230.397 157.984 230.605 157.863 230.605 157.675C230.605 157.258 229.314 157.48 229.314 156.653C229.314 156.115 229.785 155.772 230.505 155.772C230.82 155.76 231.132 155.837 231.406 155.994L231.177 156.451C230.964 156.322 230.72 156.254 230.471 156.256C230.121 156.256 229.913 156.39 229.913 156.572C229.913 157.002 231.211 156.78 231.211 157.581C231.211 158.119 230.733 158.468 230.007 158.468C229.636 158.477 229.27 158.374 228.958 158.172Z" fill="#263238"/>
<path d="M234.943 155.812L234.418 158.421H233.813L234.028 157.358H232.845L232.636 158.421H232.031L232.549 155.812H233.154L232.952 156.841H234.136L234.338 155.812H234.943Z" fill="#263238"/>
</g>
<path d="M297.261 302.059C297.204 302.054 297.151 302.028 297.112 301.985C297.074 301.943 297.053 301.888 297.053 301.83C297.315 291.649 297.84 274.933 297.866 274.865C297.871 274.834 297.883 274.805 297.9 274.778C297.917 274.752 297.94 274.73 297.966 274.713C297.993 274.696 298.023 274.685 298.054 274.681C298.085 274.676 298.116 274.678 298.147 274.687C298.177 274.695 298.205 274.71 298.229 274.731C298.253 274.751 298.272 274.776 298.286 274.804C298.299 274.833 298.307 274.863 298.307 274.895C298.308 274.926 298.302 274.957 298.29 274.986C298.29 274.986 297.752 291.764 297.497 301.844C297.497 301.873 297.491 301.901 297.48 301.928C297.468 301.954 297.452 301.978 297.431 301.998C297.41 302.018 297.386 302.034 297.359 302.045C297.332 302.055 297.303 302.06 297.275 302.059H297.261Z" fill="#263238"/>
<path d="M295.896 268.047C295.977 268.834 296.918 271.55 297.705 271.463C298.492 271.375 298.821 268.524 298.734 267.737C298.714 267.551 298.657 267.371 298.567 267.206C298.477 267.042 298.355 266.897 298.209 266.779C298.063 266.662 297.895 266.575 297.715 266.522C297.535 266.47 297.347 266.453 297.16 266.473C296.974 266.494 296.793 266.55 296.629 266.64C296.465 266.731 296.32 266.852 296.202 266.998C296.085 267.144 295.997 267.312 295.945 267.492C295.892 267.672 295.876 267.86 295.896 268.047Z" fill="#2ECC71"/>
<path d="M299.702 276.64C299.615 275.854 298.673 273.137 297.893 273.224C297.113 273.312 296.777 276.163 296.858 276.95C296.915 277.313 297.11 277.64 297.403 277.864C297.695 278.087 298.062 278.189 298.427 278.15C298.793 278.11 299.129 277.931 299.367 277.65C299.604 277.369 299.724 277.008 299.702 276.64Z" fill="#2ECC71"/>
<path d="M293.489 274.253C294.275 274.173 296.992 273.231 296.905 272.451C296.817 271.671 293.966 271.335 293.179 271.415C292.803 271.457 292.458 271.645 292.221 271.94C291.984 272.236 291.874 272.613 291.915 272.989C291.956 273.365 292.145 273.71 292.44 273.947C292.735 274.184 293.112 274.294 293.489 274.253Z" fill="#2ECC71"/>
<path d="M302.083 270.454C301.303 270.535 298.579 271.476 298.667 272.256C298.754 273.036 301.605 273.372 302.392 273.292C302.578 273.271 302.759 273.215 302.923 273.124C303.088 273.034 303.233 272.913 303.35 272.767C303.467 272.621 303.555 272.453 303.607 272.273C303.66 272.093 303.676 271.904 303.656 271.718C303.636 271.532 303.579 271.351 303.489 271.187C303.399 271.023 303.277 270.878 303.131 270.76C302.985 270.643 302.817 270.555 302.637 270.503C302.457 270.45 302.269 270.434 302.083 270.454Z" fill="#2ECC71"/>
<path d="M293.422 270.669C294.033 271.16 296.622 272.418 297.113 271.806C297.604 271.194 295.822 268.934 295.21 268.444C294.915 268.206 294.538 268.096 294.161 268.137C293.785 268.178 293.44 268.367 293.203 268.662C292.966 268.957 292.856 269.335 292.897 269.711C292.938 270.087 293.126 270.432 293.422 270.669Z" fill="#2ECC71"/>
<path d="M302.17 274.038C301.558 273.548 298.976 272.29 298.478 272.902C297.981 273.514 299.77 275.773 300.381 276.264C300.528 276.382 300.695 276.469 300.875 276.522C301.055 276.574 301.244 276.591 301.43 276.571C301.617 276.55 301.797 276.494 301.962 276.403C302.126 276.313 302.271 276.192 302.389 276.046C302.506 275.9 302.594 275.732 302.646 275.552C302.699 275.372 302.715 275.183 302.695 274.997C302.675 274.81 302.618 274.63 302.528 274.465C302.438 274.301 302.316 274.156 302.17 274.038Z" fill="#2ECC71"/>
<path d="M296.111 276.728C296.602 276.116 297.867 273.527 297.248 273.036C296.629 272.545 294.377 274.327 293.886 274.939C293.768 275.085 293.681 275.253 293.628 275.433C293.576 275.613 293.559 275.802 293.579 275.988C293.599 276.174 293.656 276.355 293.746 276.519C293.836 276.684 293.958 276.829 294.104 276.946C294.25 277.064 294.418 277.151 294.598 277.204C294.778 277.257 294.967 277.273 295.153 277.253C295.339 277.233 295.52 277.176 295.684 277.086C295.849 276.996 295.994 276.874 296.111 276.728Z" fill="#2ECC71"/>
<path d="M299.481 267.979C298.99 268.591 297.732 271.18 298.344 271.671C298.956 272.162 301.215 270.38 301.706 269.768C301.944 269.473 302.054 269.096 302.013 268.719C301.972 268.343 301.783 267.998 301.488 267.761C301.193 267.524 300.815 267.413 300.439 267.454C300.062 267.495 299.718 267.684 299.481 267.979Z" fill="#2ECC71"/>
<path opacity="0.9" d="M296.118 272.539C296.153 272.872 296.287 273.188 296.502 273.446C296.718 273.704 297.005 273.892 297.327 273.986C297.649 274.08 297.992 274.077 298.312 273.976C298.632 273.875 298.915 273.681 299.125 273.419C299.335 273.157 299.463 272.839 299.491 272.504C299.52 272.17 299.449 271.834 299.286 271.541C299.124 271.247 298.878 271.008 298.58 270.854C298.282 270.7 297.944 270.638 297.611 270.676C297.166 270.727 296.76 270.951 296.481 271.3C296.201 271.649 296.071 272.094 296.118 272.539Z" fill="white"/>
<path d="M296.28 294.602C294.329 294.642 290.994 292.84 289.676 291.078C288.358 289.316 292.083 290.406 291.693 288.993C291.303 287.581 286.704 288.637 285.85 286.626C284.996 284.616 288.318 285.073 288.183 284.044C288.049 283.015 284.606 283.237 283.476 281.099C282.346 278.961 285.393 280.151 284.915 279.27C284.438 278.389 280.632 274.664 282.225 273.89C283.819 273.117 287.383 276.984 288.573 277.414C289.764 277.844 290.039 275.161 291.593 276.439C293.146 277.716 292.003 283.338 293.832 284.071C295.177 284.616 294.605 282.054 296.172 282.693C298.936 283.809 297.073 294.581 296.28 294.602Z" fill="#2ECC71"/>
<g opacity="0.2">
<path d="M296.28 294.602C294.329 294.642 290.994 292.84 289.676 291.078C288.358 289.316 292.083 290.406 291.693 288.993C291.303 287.581 286.704 288.637 285.85 286.626C284.996 284.616 288.318 285.073 288.183 284.044C288.049 283.015 284.606 283.237 283.476 281.099C282.346 278.961 285.393 280.151 284.915 279.27C284.438 278.389 280.632 274.664 282.225 273.89C283.819 273.117 287.383 276.984 288.573 277.414C289.764 277.844 290.039 275.161 291.593 276.439C293.146 277.716 292.003 283.338 293.832 284.071C295.177 284.616 294.605 282.054 296.172 282.693C298.936 283.809 297.073 294.581 296.28 294.602Z" fill="white"/>
</g>
<path d="M299.084 292.12C299.117 292.181 298.828 292.456 299.79 292.497C302.164 292.591 306.36 292.429 307.933 290.278C310.186 287.198 304.995 287.48 305.499 285.779C306.003 284.078 311.551 285.47 312.667 283.042C313.783 280.615 309.702 281.092 309.89 279.841C310.078 278.591 314.328 280.211 315.734 277.642C317.139 275.074 313.42 276.445 314.019 275.376C314.617 274.307 319.338 269.876 317.428 268.887C315.518 267.899 311.087 272.532 309.621 273.029C308.155 273.527 307.826 268.995 305.902 270.501C303.979 272.007 305.23 278.873 303.004 279.727C301.33 280.359 302.244 277.905 300.18 277.999C297.383 278.133 296.468 287.743 299.084 292.12Z" fill="#2ECC71"/>
<g opacity="0.3">
<path d="M299.084 292.12C299.117 292.181 298.828 292.456 299.79 292.497C302.164 292.591 306.36 292.429 307.933 290.278C310.186 287.198 304.995 287.48 305.499 285.779C306.003 284.078 311.551 285.47 312.667 283.042C313.783 280.615 309.702 281.092 309.89 279.841C310.078 278.591 314.328 280.211 315.734 277.642C317.139 275.074 313.42 276.445 314.019 275.376C314.617 274.307 319.338 269.876 317.428 268.887C315.518 267.899 311.087 272.532 309.621 273.029C308.155 273.527 307.826 268.995 305.902 270.501C303.979 272.007 305.23 278.873 303.004 279.727C301.33 280.359 302.244 277.905 300.18 277.999C297.383 278.133 296.468 287.743 299.084 292.12Z" fill="white"/>
</g>
<path d="M297.309 300.519C297.268 300.512 297.232 300.491 297.207 300.458C297.182 300.426 297.17 300.385 297.174 300.344C299.124 284.407 308.303 277.932 308.397 277.871C308.43 277.847 308.471 277.837 308.512 277.844C308.552 277.85 308.588 277.872 308.612 277.905C308.634 277.939 308.642 277.98 308.634 278.02C308.627 278.06 308.605 278.096 308.572 278.12C308.478 278.187 299.413 284.596 297.483 300.385C297.481 300.405 297.474 300.425 297.464 300.443C297.454 300.46 297.44 300.476 297.424 300.489C297.408 300.501 297.389 300.51 297.369 300.515C297.35 300.521 297.329 300.522 297.309 300.519Z" fill="#263238"/>
<path d="M306.265 280.083C306.234 280.08 306.204 280.069 306.179 280.05C306.154 280.031 306.135 280.005 306.124 279.976C306.118 279.956 306.116 279.936 306.117 279.915C306.119 279.895 306.125 279.875 306.134 279.857C306.143 279.839 306.156 279.823 306.172 279.81C306.187 279.797 306.206 279.787 306.225 279.781C307.428 279.48 308.687 279.48 309.89 279.781C309.91 279.785 309.928 279.793 309.945 279.804C309.961 279.815 309.975 279.83 309.986 279.847C309.997 279.864 310.004 279.883 310.007 279.903C310.01 279.923 310.009 279.943 310.004 279.962C309.996 280.002 309.972 280.038 309.938 280.06C309.904 280.083 309.863 280.091 309.823 280.083C308.674 279.792 307.473 279.78 306.319 280.05L306.265 280.083Z" fill="#263238"/>
<path d="M304.598 282.02C304.558 282.017 304.522 281.999 304.494 281.971C304.467 281.942 304.451 281.905 304.45 281.865C304.505 278.782 305.468 275.783 307.22 273.245C307.232 273.228 307.246 273.213 307.264 273.202C307.281 273.191 307.3 273.184 307.32 273.18C307.341 273.177 307.361 273.178 307.381 273.184C307.401 273.189 307.419 273.198 307.435 273.211C307.463 273.24 307.479 273.278 307.479 273.318C307.479 273.359 307.463 273.397 307.435 273.426C305.732 275.915 304.797 278.85 304.746 281.865C304.746 281.906 304.729 281.946 304.7 281.975C304.671 282.004 304.632 282.02 304.591 282.02H304.598Z" fill="#263238"/>
<path d="M301.861 286.095C301.84 286.096 301.82 286.092 301.802 286.083C301.783 286.075 301.767 286.063 301.753 286.048C301.725 286.019 301.709 285.981 301.709 285.941C301.709 285.9 301.725 285.862 301.753 285.833C302.401 285.271 303.183 284.887 304.023 284.719C304.864 284.55 305.734 284.603 306.548 284.871C306.586 284.885 306.617 284.913 306.634 284.95C306.652 284.986 306.655 285.028 306.642 285.066C306.635 285.086 306.624 285.104 306.61 285.12C306.597 285.135 306.58 285.148 306.561 285.156C306.542 285.165 306.522 285.17 306.501 285.171C306.48 285.171 306.459 285.168 306.44 285.161C305.681 284.907 304.87 284.857 304.085 285.014C303.301 285.17 302.571 285.529 301.968 286.055C301.955 286.07 301.938 286.081 301.919 286.088C301.901 286.095 301.88 286.097 301.861 286.095Z" fill="#263238"/>
<path d="M300.435 288.946C300.405 288.944 300.377 288.934 300.352 288.917C300.328 288.901 300.307 288.878 300.294 288.852C299.612 286.936 299.441 284.876 299.796 282.874C299.799 282.853 299.807 282.834 299.818 282.816C299.829 282.799 299.843 282.784 299.86 282.772C299.877 282.76 299.896 282.751 299.916 282.747C299.937 282.743 299.957 282.742 299.978 282.746C300.018 282.753 300.053 282.775 300.077 282.807C300.101 282.84 300.111 282.881 300.106 282.921C299.76 284.866 299.924 286.868 300.583 288.731C300.591 288.75 300.594 288.77 300.594 288.791C300.594 288.811 300.589 288.831 300.581 288.85C300.573 288.869 300.561 288.886 300.547 288.9C300.532 288.914 300.515 288.925 300.496 288.933L300.435 288.946Z" fill="#263238"/>
<path d="M297.369 306.215C297.329 306.211 297.293 306.194 297.265 306.165C297.238 306.137 297.222 306.099 297.221 306.06L297.019 301.844C296.434 287.803 286.805 278.261 286.704 278.167C286.674 278.138 286.658 278.098 286.658 278.056C286.658 278.014 286.674 277.975 286.704 277.945C286.733 277.916 286.773 277.899 286.815 277.899C286.856 277.899 286.896 277.916 286.926 277.945C287.02 278.039 296.737 287.669 297.328 301.83L297.53 306.053C297.531 306.074 297.528 306.094 297.521 306.113C297.514 306.132 297.503 306.15 297.49 306.165C297.476 306.18 297.459 306.192 297.441 306.2C297.422 306.209 297.402 306.214 297.382 306.215H297.369Z" fill="#263238"/>
<path d="M290.678 283.439H290.638H290.584C289.33 282.917 287.982 282.656 286.623 282.672C286.582 282.672 286.543 282.656 286.514 282.627C286.485 282.598 286.469 282.559 286.469 282.518C286.469 282.477 286.485 282.437 286.514 282.408C286.543 282.379 286.582 282.363 286.623 282.363C288.025 282.347 289.416 282.614 290.712 283.15H290.759C290.792 283.164 290.82 283.19 290.836 283.223C290.852 283.256 290.856 283.294 290.847 283.329C290.838 283.364 290.817 283.396 290.787 283.417C290.758 283.438 290.721 283.448 290.685 283.446L290.678 283.439Z" fill="#263238"/>
<path d="M292.036 285.248C291.997 285.241 291.96 285.221 291.935 285.19C291.909 285.159 291.895 285.12 291.895 285.08C292.069 282.432 291.454 279.792 290.127 277.494C290.115 277.477 290.108 277.458 290.104 277.438C290.1 277.418 290.101 277.397 290.105 277.377C290.11 277.357 290.118 277.338 290.13 277.321C290.141 277.304 290.156 277.29 290.174 277.279C290.19 277.268 290.209 277.261 290.229 277.257C290.248 277.253 290.268 277.254 290.288 277.258C290.307 277.263 290.326 277.271 290.342 277.283C290.358 277.294 290.372 277.309 290.382 277.326C291.757 279.678 292.399 282.388 292.225 285.107C292.223 285.129 292.217 285.151 292.206 285.17C292.196 285.19 292.181 285.207 292.163 285.221C292.145 285.234 292.125 285.243 292.103 285.248C292.081 285.253 292.058 285.253 292.036 285.248Z" fill="#263238"/>
<path d="M293.442 287.648C293.404 287.642 293.369 287.626 293.341 287.601C292.826 287.134 292.203 286.802 291.528 286.637C290.853 286.471 290.147 286.477 289.474 286.653C289.454 286.658 289.434 286.659 289.414 286.656C289.393 286.653 289.374 286.646 289.356 286.635C289.339 286.625 289.324 286.611 289.311 286.594C289.299 286.577 289.291 286.559 289.286 286.539C289.277 286.5 289.284 286.459 289.303 286.424C289.323 286.389 289.356 286.363 289.394 286.35C290.119 286.153 290.883 286.145 291.613 286.326C292.342 286.508 293.014 286.872 293.563 287.386C293.577 287.4 293.589 287.416 293.597 287.435C293.605 287.453 293.609 287.473 293.609 287.494C293.609 287.514 293.605 287.534 293.597 287.552C293.589 287.571 293.577 287.587 293.563 287.601C293.548 287.618 293.529 287.631 293.508 287.639C293.487 287.648 293.464 287.651 293.442 287.648Z" fill="#263238"/>
<path d="M295.231 291.582C295.209 291.589 295.185 291.589 295.163 291.582C295.145 291.573 295.129 291.56 295.116 291.545C295.103 291.529 295.093 291.512 295.087 291.492C295.08 291.473 295.078 291.452 295.08 291.432C295.081 291.412 295.087 291.392 295.096 291.374C295.803 289.781 296.088 288.032 295.923 286.297C295.923 286.277 295.927 286.257 295.935 286.238C295.943 286.219 295.954 286.202 295.969 286.188C295.983 286.173 296 286.162 296.019 286.154C296.038 286.146 296.058 286.142 296.078 286.142C296.098 286.142 296.118 286.146 296.137 286.154C296.156 286.162 296.173 286.173 296.187 286.188C296.202 286.202 296.213 286.219 296.221 286.238C296.229 286.257 296.233 286.277 296.233 286.297C296.41 288.091 296.113 289.899 295.372 291.542C295.354 291.56 295.331 291.573 295.306 291.58C295.282 291.587 295.256 291.588 295.231 291.582Z" fill="#263238"/>
<path d="M306.05 306.88C306.05 311.803 303.838 315.79 297.133 315.79C290.732 315.79 288.21 311.803 288.21 306.88C288.208 305.091 288.745 303.344 289.75 301.864H304.51C305.515 303.344 306.051 305.091 306.05 306.88Z" fill="#263238"/>
<defs>
<clipPath id="clip0_281_1237">
<rect width="233.157" height="281.838" fill="white" transform="translate(51.2432 34.1621)"/>
</clipPath>
</defs>
</svg>
